<svg xmlns="http://www.w3.org/2000/svg" width="1068.7" height="601.6" viewBox="0 0 1068.7 601.6"><defs><style>.cls-1{fill:#f69885;}.cls-2{fill:#f47c68;}.cls-3{fill:#eb6855;}.cls-4{fill:#fff3e7;}.cls-5{fill:#995e4c;}.cls-6{fill:#7e4435;}.cls-7{fill:#8b5446;}.cls-8{fill:#fff;}.cls-9{fill:#f9b733;}.cls-10{fill:#e65d5b;}.cls-11{fill:#ce4144;}.cls-12{fill:#a6503d;}.cls-13{fill:#723d37;}.cls-14{fill:#e18a74;}.cls-15{fill:#f7997d;}.cls-16{fill:#aa5d49;}.cls-17{fill:#f28c27;}.cls-18{fill:#4f4671;}.cls-19{fill:#342a4e;}.cls-20{fill:#231f20;}</style></defs><g id="Layer_2" data-name="Layer 2"><g id="Capa_1" data-name="Capa 1"><path class="cls-1" d="M88.3,601.3,102,487.5S90.1,468.4,82.4,452a83.3,83.3,0,0,1-5.9-15c-3.2-13.4-2.3-33.7-2-39.6.1-1.1.1-1.7.1-1.7l71.2,8.9-2.2,60.9-.5,12.7,5.3,123.1Z"/><path class="cls-2" d="M145.8,404.6l-2.2,60.9c-.1.1-.1.3-.2.4a24.3,24.3,0,0,1-32.8,10c-11-5.9-20.4-14.4-28.2-23.9a83.3,83.3,0,0,1-5.9-15c-3.2-13.4-2.3-33.7-2-39.6.1-1.1.1-1.7.1-1.7Z"/><path class="cls-3" d="M137,436.4H82.7a1.1,1.1,0,0,1,0-2.2H137a1.1,1.1,0,0,1,0,2.2Z"/><path class="cls-4" d="M0,429.7H207v-271L.4,157.7S3.6,429.7,0,429.7Z"/><path class="cls-1" d="M104.2,482.2a12.3,12.3,0,0,0,18.8-2.8c3.4-5.7,2.9-11.9-.8-19.8-6.4-13.8-15.8-17.7-15.8-17.7s8.8-16,5.1-26.5-8.5-6.3-9.5-3c-1.3,4.8-9.2,22.1-10.6,30.3C88.4,459.2,92.4,471.6,104.2,482.2Z"/><path class="cls-3" d="M105.1,448.7h-.2a1.1,1.1,0,0,1-.8-1.4c.7-2.8,1.7-5.4,2.6-8s1.8-5.2,2.5-7.9a48.4,48.4,0,0,0,1.7-12.5,11.6,11.6,0,0,0-4.9-9.1,1.1,1.1,0,0,1-.2-1.6,1.1,1.1,0,0,1,1.5-.2,13.8,13.8,0,0,1,5.7,10.8,45.4,45.4,0,0,1-1.7,13.2,83.4,83.4,0,0,1-2.6,8c-.8,2.6-1.8,5.2-2.5,7.9A1.1,1.1,0,0,1,105.1,448.7Z"/><path class="cls-3" d="M119.3,484.6a1.3,1.3,0,0,1-.9-.4,1.1,1.1,0,0,1,.2-1.6,14.2,14.2,0,0,0,5.3-9.6,25.6,25.6,0,0,0-1.6-11.5,31.9,31.9,0,0,0-6.1-10.9,19.3,19.3,0,0,0-9.9-6.1,1.1,1.1,0,0,1-.8-1.4,1.2,1.2,0,0,1,1.4-.7,21.7,21.7,0,0,1,10.9,6.7,34,34,0,0,1,6.6,11.7,26.6,26.6,0,0,1,1.6,12.4,16.1,16.1,0,0,1-6.1,11.2Z"/><path class="cls-3" d="M124.2,491a13.9,13.9,0,0,1-5.7-1.2,1,1,0,0,1-.5-1.4,1.1,1.1,0,0,1,1.4-.6,11.4,11.4,0,0,0,9.4.1,1.1,1.1,0,0,1,1.5.5,1.2,1.2,0,0,1-.6,1.5A12.9,12.9,0,0,1,124.2,491Z"/><path class="cls-3" d="M125.5,495.8a9.8,9.8,0,0,1-4.1-.9,1.1,1.1,0,0,1-.5-1.5,1.1,1.1,0,0,1,1.5-.5,7.9,7.9,0,0,0,4.8.6,1.1,1.1,0,0,1,1.3.8,1.2,1.2,0,0,1-.8,1.3A8.2,8.2,0,0,1,125.5,495.8Z"/><path class="cls-5" d="M646.3,600c-1.1-88.7-2.9-176.4-2.9-176.4l-38-7.6-45,184Z"/><path class="cls-6" d="M586.6,590.6a1.1,1.1,0,0,1-.7-.3,17.1,17.1,0,0,0-13.8-3.3,1.3,1.3,0,0,1-1.5-1,1.2,1.2,0,0,1,1-1.4,19.5,19.5,0,0,1,15.8,3.8,1.2,1.2,0,0,1,.2,1.7A1.2,1.2,0,0,1,586.6,590.6Z"/><path class="cls-5" d="M601.6,413.9a22.4,22.4,0,0,0,2.8,9.7c7.3,12.8,26.3,17.6,37,9,18-14.6,21.5-39.1,21.5-39.1-.9-12.6-11.3-18.5-24.4-24.9l-1-.4C624,361.7,600.3,393.3,601.6,413.9Z"/><path class="cls-7" d="M601.6,413.5a22.4,22.4,0,0,0,2.8,9.7H638a5.8,5.8,0,0,0,5.7-5.4l.9-18.1,10.8-10.5-8.9-6.7-8-14.3-1-.4C624,361.3,600.3,392.9,601.6,413.5Z"/><path class="cls-5" d="M396.3,600l-45-184-38,7.6s-1.8,87.7-2.9,176.4Z"/><path class="cls-6" d="M362.6,589.3a1.6,1.6,0,0,1-1.1-.5,1.3,1.3,0,0,1,.4-1.7,18,18,0,0,1,18.2-1.3,1.3,1.3,0,0,1,.5,1.7,1.2,1.2,0,0,1-1.6.5,16,16,0,0,0-15.7,1.1A1.1,1.1,0,0,1,362.6,589.3Z"/><path class="cls-5" d="M355.1,413.9a21.2,21.2,0,0,1-2.9,9.7c-7.2,12.8-26.2,17.6-36.9,9-18-14.6-21.5-39.1-21.5-39.1.8-12.6,11.3-18.5,24.4-24.9l1-.4C332.7,361.7,356.4,393.3,355.1,413.9Z"/><path class="cls-7" d="M355.1,413.5a21.2,21.2,0,0,1-2.9,9.7H318.7a5.6,5.6,0,0,1-5.7-5.4l-.9-18.1-10.8-10.5,8.9-6.7,8-14.3,1-.4C332.7,361.3,356.4,392.9,355.1,413.5Z"/><rect class="cls-8" x="318.8" y="230.5" width="318.2" height="186.02"/><path class="cls-5" d="M331.8,381.3s4.9.9,6-3.1c2.8-10.1-10.1-19-18.8-22.4v-7.3s11.5,10.8,13.9,5.3-4.5-13.1-11.5-17.7-11.6-1.6-12.8,1.5-1.7,8.6,5.2,18.6c-3.6,1.4-6.4,3.5-5.7,11.4-5.5,1.2-18.6,10.9-13.8,28.1h.2a22.7,22.7,0,0,1,23,2.7c2.1,1.7,4.2,3,5.4,3.2,3.5.6,7.1-.7,6.7-6.4C334.5,393,336.3,387.7,331.8,381.3Z"/><path class="cls-6" d="M323.8,403.4l-2.1-.2a19.1,19.1,0,0,1-7.1-3.9,1.2,1.2,0,0,1,1.7-1.7,17.4,17.4,0,0,0,6,3.2c1.6.4,3.9.1,4.6-1.1a5.8,5.8,0,0,0,.6-5.1c-1.5-4.7-8.3-9.8-20.3-15l-1.1-.5a1.2,1.2,0,0,1-.6-1.6,1.2,1.2,0,0,1,1.7-.6l1,.4c4.7,2.1,19,8.4,21.7,16.6a8.5,8.5,0,0,1-.9,7.1C328,402.7,325.9,403.4,323.8,403.4Z"/><path class="cls-6" d="M313.7,356.7a1.1,1.1,0,0,1-.9-.4,23.4,23.4,0,0,1-6.4-10.4c-1.3-4.4-.2-10.4,4.5-12.7s8.3-.4,10.6.8c6.9,3.4,13.6,10.3,12.9,18.2a4.7,4.7,0,0,1-3.5,4,7.4,7.4,0,0,1-5-.7,26,26,0,0,1-3.6-2.7l-6.4-5.7a1.2,1.2,0,0,1-.1-1.7,1.3,1.3,0,0,1,1.8-.1l6.3,5.6a17.2,17.2,0,0,0,3.1,2.4,4.3,4.3,0,0,0,3.2.5A2.2,2.2,0,0,0,332,352c.5-6.7-5.4-12.8-11.6-15.8-1.9-1-5.5-2.3-8.4-.8s-4.3,6.3-3.3,9.8,3,6.4,5.9,9.5a1.2,1.2,0,0,1-.1,1.7A1.1,1.1,0,0,1,313.7,356.7Z"/><path class="cls-6" d="M329.6,396.4a1.2,1.2,0,0,1-1-.6,1.3,1.3,0,0,1,.3-1.7c2.3-1.5,2.9-2.2,3.5-4.6a10,10,0,0,0-1.2-7.4,19.7,19.7,0,0,0-5.5-5.8,37.9,37.9,0,0,0-13.9-6.6,1.3,1.3,0,0,1-1-1.5,1.4,1.4,0,0,1,1.5-.9,40.8,40.8,0,0,1,14.9,7,23.1,23.1,0,0,1,6.1,6.6,12.7,12.7,0,0,1,1.5,9.2c-.8,3.1-1.8,4.2-4.5,6.1Z"/><path class="cls-6" d="M333.6,383.9a1.4,1.4,0,0,1-1.2-1,1.4,1.4,0,0,1,.9-1.5c2-.4,2.6-1.7,2.6-5.2s-1.1-5-3.2-7.9A32.6,32.6,0,0,0,317.6,357a1.3,1.3,0,0,1-.7-1.6,1.2,1.2,0,0,1,1.5-.8,36,36,0,0,1,16.3,12.2c2.4,3.4,3.6,6.4,3.6,9.4s.1,6.5-4.4,7.6Z"/><path class="cls-5" d="M624.9,381.3s-4.9.9-6-3.1c-2.8-10.1,10-19,18.7-22.4v-7.3s-11.4,10.8-13.8,5.3,4.5-13.1,11.5-17.7,11.6-1.6,12.8,1.5,1.7,8.6-5.2,18.6c3.6,1.4,6.4,3.5,5.7,11.4,5.5,1.2,18.6,10.9,13.8,28.1h-.2a22.7,22.7,0,0,0-23,2.7c-2.1,1.7-4.2,3-5.4,3.2-3.5.6-7.1-.7-6.7-6.4C622.2,393,620.4,387.7,624.9,381.3Z"/><path class="cls-6" d="M632.9,403.4c-2.1,0-4.2-.7-5.2-2.4a8.2,8.2,0,0,1-.9-7.1c2.7-8.2,17-14.5,21.7-16.6l1-.4a1.2,1.2,0,0,1,1.7.6,1.2,1.2,0,0,1-.6,1.6l-1.1.5c-12,5.2-18.8,10.3-20.3,15a5.8,5.8,0,0,0,.6,5.1c.7,1.2,2.9,1.5,4.6,1.1a17.4,17.4,0,0,0,6-3.2,1.2,1.2,0,0,1,1.7,1.7,19.1,19.1,0,0,1-7.1,3.9Z"/><path class="cls-6" d="M643,356.7a1.1,1.1,0,0,1-.8-.3,1.2,1.2,0,0,1-.1-1.7c2.9-3.1,4.7-5.5,5.8-9.5s.2-8.2-3.2-9.8-6.5-.2-8.4.8c-6.2,3-12.1,9.1-11.6,15.8a2.2,2.2,0,0,0,1.8,1.8,4.3,4.3,0,0,0,3.2-.5,17.2,17.2,0,0,0,3.1-2.4l6.3-5.6a1.2,1.2,0,0,1,1.7.1,1.1,1.1,0,0,1-.1,1.7l-6.3,5.7a26,26,0,0,1-3.6,2.7,7.4,7.4,0,0,1-5,.7,4.7,4.7,0,0,1-3.5-4c-.7-7.9,6-14.8,12.9-18.2,2.3-1.2,6.7-2.8,10.6-.8s5.8,8.2,4.5,12.7a23.4,23.4,0,0,1-6.4,10.4A1.1,1.1,0,0,1,643,356.7Z"/><path class="cls-6" d="M627.1,396.4l-.7-.2c-2.7-1.9-3.7-3-4.5-6.1a12.3,12.3,0,0,1,1.5-9.2,23.1,23.1,0,0,1,6.1-6.6,40.8,40.8,0,0,1,14.9-7,1.2,1.2,0,0,1,1.4.9,1.1,1.1,0,0,1-.9,1.5,37.9,37.9,0,0,0-13.9,6.6,18.5,18.5,0,0,0-5.5,5.8,10,10,0,0,0-1.2,7.4c.6,2.4,1.2,3.1,3.5,4.6a1.3,1.3,0,0,1,.3,1.7A1.4,1.4,0,0,1,627.1,396.4Z"/><path class="cls-6" d="M623.3,383H623c-4-.9-6.2-5.3-5.9-8.9s1.8-6.2,4.7-9.4a36.6,36.6,0,0,1,16.6-10.5,1.3,1.3,0,0,1,1.6.8,1.2,1.2,0,0,1-.8,1.5,34.6,34.6,0,0,0-15.5,9.8c-2.6,2.8-4,5.4-4.2,7.9s1.4,5.8,4,6.3a1.3,1.3,0,0,1,1,1.5A1.3,1.3,0,0,1,623.3,383Z"/><path class="cls-9" d="M307.4,443.4c1.8-.6,50.3-13.2,50.3-13.2l1.2,4.8s-50.3,17.4-50.3,15.6A58.1,58.1,0,0,0,307.4,443.4Z"/><path class="cls-9" d="M307.4,455.3l52.4-17.2,1.2,4.8s-52.4,21.4-52.4,19.6A58.1,58.1,0,0,0,307.4,455.3Z"/><path class="cls-10" d="M736.4,350.5s-1.6,11.7,10.1,26,24,30.6,19.9,49.9-4,35.7,7.7,48.5,13.2,31.1,5.1,58.1,19.4,36.7,16.3,68.3H634.9S631.8,586,639,559s16.8-36.2,9.7-54.6-2.1-40.8,6.1-55,15.8-24.5,12.7-42.3-1.4-32.5,14.4-48.1S736.4,350.5,736.4,350.5Z"/><path class="cls-2" d="M714.1,340.6H689.8s-16.4-10.8-13.5-28.4,13.5-35,28-34.7,33.6,14.1,34.3,28.1S733,340.3,714.1,340.6Z"/><path class="cls-11" d="M684.6,339l49.3-2.2a3.2,3.2,0,0,1,3.4,3.3l-.3,16.8L681.8,359l-.3-16.7A3.3,3.3,0,0,1,684.6,339Z"/><polygon class="cls-12" points="689.4 461.1 707.1 461.1 707.5 214.3 707.8 12.5 707.8 0 690.2 0 690.2 12.5 689.8 214 689.4 461.1"/><polygon class="cls-13" points="689.8 204.3 690.2 12.5 707.8 12.5 707.5 204.3 689.8 204.3"/><path class="cls-1" d="M708.2,273.2c.4-3.6-7.1-5.5-12.6-6.1s-22.8-5.7-27.5-1-3.9,12,.6,14c-3.9,6.4-3.7,12.5,2.2,13.9-2.4,5.1-2.2,14.7,4.7,15.1-2.4,8.7,1.8,12.9,6.9,13.6,10,1.4,21-1.6,23.8-4.7s1.1-8.7-4.8-10c0,0,6.1-.2,6.1-6.5,0-4.2-5.5-5.9-5.5-5.9s6.1-2,5.1-9.5C710,281.4,708.2,273.2,708.2,273.2Z"/><path class="cls-1" d="M726.8,332.4a16,16,0,0,0,4-2.8c6.8-6.5,8.5-18.2,7.7-27.2-1.8-19.2-12.5-24.4-17.4-26.8s-28.7-5.2-32.4-2.5-2.4,10.1,3.7,13.5,16.5,1.5,21,4.5,5.9,6.2,5.9,6.2-7.4,3.3-9.2,8.8c-3,8.9-4.2,25.8,8.4,27.8A14.2,14.2,0,0,0,726.8,332.4Z"/><polygon class="cls-4" points="836 26.4 510.5 26.4 507.8 194.2 836.7 194.2 836 26.4"/><path class="cls-3" d="M684.1,310.6c-2.6,0-5.2-.1-7.7-.3a1,1,0,0,1-1-1.1,1.1,1.1,0,0,1,1.2-1,119.4,119.4,0,0,0,24.7-1.1,1,1,0,0,1,1.2.9,1,1,0,0,1-.9,1.2A109.8,109.8,0,0,1,684.1,310.6Z"/><path class="cls-3" d="M693.8,296.6a161.8,161.8,0,0,1-20.9-1.4,1.1,1.1,0,0,1-.9-1.3,1,1,0,0,1,1.2-.9,153,153,0,0,0,27.9,1.2,1,1,0,0,1,1.1,1,1,1,0,0,1-1,1.2Z"/><path class="cls-3" d="M721.1,302.8a1,1,0,0,1-1-.8,16.6,16.6,0,0,0-8.7-9.7,36.1,36.1,0,0,0-8.3-2.1h-.6a40.6,40.6,0,0,1-8.4-1.8,14.9,14.9,0,0,1-7.5-6c-1.7-3.2-1.5-7.2.6-9.7a1.1,1.1,0,0,1,1.5-.2,1.1,1.1,0,0,1,.2,1.6,6.5,6.5,0,0,0-.3,7.2,11.6,11.6,0,0,0,6.3,5,34.9,34.9,0,0,0,7.9,1.8h.6a31.4,31.4,0,0,1,9,2.3,18.3,18.3,0,0,1,9.7,10.9,1.1,1.1,0,0,1-.7,1.4Z"/><path class="cls-3" d="M687.6,283h-.1l-15.7-1.8a1.1,1.1,0,1,1,.2-2.2l15.8,1.8a1.1,1.1,0,0,1-.2,2.2Z"/><path class="cls-11" d="M666.2,489.6a1.3,1.3,0,0,1-1-.4,15,15,0,0,1-2.6-13.8,1.3,1.3,0,1,1,2.4.8,12,12,0,0,0,2.1,11.4,1.2,1.2,0,0,1-.1,1.7A1.3,1.3,0,0,1,666.2,489.6Z"/><path class="cls-11" d="M671.9,487.3a.9.9,0,0,1-.8-.4,9.4,9.4,0,0,1-2.6-9.5,1.2,1.2,0,0,1,2.3.7,7.2,7.2,0,0,0,1.9,7,1.3,1.3,0,0,1,.1,1.8A1.5,1.5,0,0,1,671.9,487.3Z"/><path class="cls-11" d="M741.6,410.3h-.1a1.2,1.2,0,0,1-1.1-1.4,16.6,16.6,0,0,0-3.6-12.1,1.4,1.4,0,0,1,.2-1.8,1.2,1.2,0,0,1,1.7.2,19.2,19.2,0,0,1,4.2,14A1.3,1.3,0,0,1,741.6,410.3Z"/><path class="cls-11" d="M748.4,406.4h0a1.2,1.2,0,0,1-1.2-1.3,12.2,12.2,0,0,0-2.2-7.4,1.2,1.2,0,0,1,.3-1.7,1.2,1.2,0,0,1,1.7.3,14.8,14.8,0,0,1,2.7,8.9A1.2,1.2,0,0,1,748.4,406.4Z"/><path class="cls-11" d="M726.6,527.8a1.1,1.1,0,0,1-1-.6,1.2,1.2,0,0,1,.4-1.7,13.3,13.3,0,0,0,5.7-13.6,1.2,1.2,0,0,1,.9-1.5,1.3,1.3,0,0,1,1.5.9,15.8,15.8,0,0,1-6.8,16.3Z"/><path class="cls-11" d="M733.4,529.3a1.1,1.1,0,0,1-1-.6,1.3,1.3,0,0,1,.4-1.7c3.4-1.8,5.2-7.2,4.6-10.8a1.2,1.2,0,0,1,1-1.4,1.2,1.2,0,0,1,1.4,1c.7,4.5-1.3,10.9-5.8,13.4Z"/><path class="cls-11" d="M671,570.9a1.4,1.4,0,0,1-1-.5,21.9,21.9,0,0,1-4-16.4,1.2,1.2,0,0,1,1.4-1.1,1.4,1.4,0,0,1,1,1.5,19.8,19.8,0,0,0,3.6,14.5,1.2,1.2,0,0,1-.2,1.7A1.3,1.3,0,0,1,671,570.9Z"/><path class="cls-11" d="M675.7,567.1a1.2,1.2,0,0,1-.9-.4c-2.2-2.4-3.6-7.3-2.2-10.3a1.2,1.2,0,0,1,1.6-.6,1.3,1.3,0,0,1,.6,1.7c-.8,1.8.1,5.7,1.8,7.5a1.3,1.3,0,0,1,0,1.8A1.6,1.6,0,0,1,675.7,567.1Z"/><path class="cls-11" d="M753.7,573.8a1.1,1.1,0,0,1-.8-.3,1.4,1.4,0,0,1-.1-1.8,11.9,11.9,0,0,0,2.6-11.8,1.3,1.3,0,0,1,.8-1.6,1.4,1.4,0,0,1,1.6.8,14.7,14.7,0,0,1-3.2,14.3A1,1,0,0,1,753.7,573.8Z"/><path class="cls-11" d="M761.5,572.3a1.2,1.2,0,0,1-.8-.2,1.3,1.3,0,0,1-.1-1.8,10.6,10.6,0,0,0,2-9.1,1.4,1.4,0,0,1,.9-1.5,1.3,1.3,0,0,1,1.5,1,13,13,0,0,1-2.5,11.2A1.3,1.3,0,0,1,761.5,572.3Z"/><path class="cls-11" d="M678.3,391.4a1.4,1.4,0,0,1-1.1-.6,14.8,14.8,0,0,1-.5-13.7,1.2,1.2,0,1,1,2.2,1.1,12.2,12.2,0,0,0,.5,11.3,1.3,1.3,0,0,1-.5,1.7Z"/><path class="cls-14" d="M898.9,437s14.8-15.9,29.8-20.5,24.9-1.5,28.8-3.1,7-2.8,9.2-.2-.5,11.8-9.2,13.5S898.9,437,898.9,437Z"/><path class="cls-14" d="M1012,362c0,.4-8.3-25.8-27-37.2s-28.8-3.5-36.1-1.7-15.6-3.9-19.3-1.3-1.1,11.8,10.4,15.7S1010.5,354.9,1012,362Z"/><polygon class="cls-12" points="935 546.8 957.7 546.8 958.3 300 958.7 98.3 958.7 85.8 936 85.8 936 98.3 935.6 299.7 935 546.8"/><polygon class="cls-13" points="935.6 290 936 98.3 958.7 98.3 958.3 290 935.6 290"/><polygon class="cls-8" points="1068.2 109.2 816.1 109.2 814.1 277.1 1068.7 277.1 1068.2 109.2"/><path class="cls-15" d="M748.8,601.2S888,433.5,916.7,424.2c17.4-6.5,50.2-4.9,53.9,1.6,1.3,2.4,0,10.1-5.5,10.8,0,0,4.4,4.1,3.7,8.1s-4.6,6-4.6,6a8.2,8.2,0,0,1,2.6,5.1c1.1,5.6-3.2,7.4-3.2,7.4s6.9,1.2,6.5,10.9c-.3,5.7-4.1,7.9-12.2,7.9v-5.3s-24.9,4.7-36.4.2c-13.8,21-72.7,124.7-72.7,124.7Z"/><path class="cls-16" d="M966.1,438a1.3,1.3,0,0,1-1.2-1,1.3,1.3,0,0,1,1-1.5,4.8,4.8,0,0,0,3.6-3.1,6.7,6.7,0,0,0-.8-5.9c-2.2-2.7-8.7-3.7-12.5-4.3h-.6c-16.1-2.5-29.1-2.3-43.9,7a1.2,1.2,0,0,1-1.7-.4,1.3,1.3,0,0,1,.4-1.7c15.5-9.7,28.9-10,45.6-7.3h.6c4.5.7,11.2,1.7,14,5.2a8.8,8.8,0,0,1,1.2,8.2,7,7,0,0,1-5.4,4.7Z"/><path class="cls-16" d="M937.4,479.2a102,102,0,0,1-18.3-1.6,1.3,1.3,0,0,1,.4-2.5,99.9,99.9,0,0,0,42.5-1.4,1.1,1.1,0,0,1,1.5.9,1.2,1.2,0,0,1-.9,1.5A101.7,101.7,0,0,1,937.4,479.2Z"/><path class="cls-16" d="M962.2,452.5a1.4,1.4,0,0,1-1.3-1,1.3,1.3,0,0,1,1-1.5,7,7,0,0,0,5.4-5.1,7.3,7.3,0,0,0-2.3-7.1,1.2,1.2,0,0,1-.2-1.7,1.3,1.3,0,0,1,1.8-.2,9.7,9.7,0,0,1,3.1,9.6,10,10,0,0,1-7.3,7Z"/><path class="cls-16" d="M962.5,465.4a1.4,1.4,0,0,1-1.1-.7,1.3,1.3,0,0,1,.6-1.7,6,6,0,0,0,3.6-4.9,6.4,6.4,0,0,0-2.4-5.6,1.2,1.2,0,0,1-.3-1.7,1.3,1.3,0,0,1,1.8-.3,8.6,8.6,0,0,1-1.7,14.8Z"/><path class="cls-9" d="M879.3,551.2l-11.8,19.6-18.7,30.8H742.2a776.4,776.4,0,0,1,64.4-75.2c5.9-6,12.1-12.1,18.5-18.1C829.4,511.5,879.3,551.2,879.3,551.2Z"/><path class="cls-17" d="M879.3,551.2l-11.8,19.6-60.9-44.5c5.9-6,12.1-12.1,18.5-18.1C829.4,511.5,879.3,551.2,879.3,551.2Z"/><path class="cls-15" d="M976.7,332.4s-35.8-1.5-39.3-1.1c-5.4.7-10.3,7.6-4.6,14.6-4.7,2-7.2,12.4.4,16.2-5.3,2.6-4.4,12.7.5,13.9-8.4,2.5-7.9,9.8-5.5,13.7a13.8,13.8,0,0,0,7.2,5.2l.2-7.5,9.8.2s35.6,19.6,58.4.7C1022.5,372.8,1006.6,332.7,976.7,332.4Z"/><path class="cls-16" d="M934.1,346.7a1.3,1.3,0,0,1-.8-.3,9.8,9.8,0,0,1-3.2-9.3A9.7,9.7,0,0,1,937,330a1.2,1.2,0,0,1,.6,2.4,7.1,7.1,0,0,0-5.1,5.2,7.2,7.2,0,0,0,2.4,6.9,1.4,1.4,0,0,1,.2,1.8A1.3,1.3,0,0,1,934.1,346.7Z"/><path class="cls-16" d="M934.9,363.7h-.3a10.1,10.1,0,0,1-7.5-8.7,10.3,10.3,0,0,1,5.6-10.2,1.2,1.2,0,0,1,1.6.6,1.3,1.3,0,0,1-.6,1.7,7.6,7.6,0,0,0,1.5,14.2,1.2,1.2,0,0,1,.9,1.5A1.1,1.1,0,0,1,934.9,363.7Z"/><path class="cls-15" d="M936,377.9h-.4a9.8,9.8,0,0,1-7.1-8.9,8.7,8.7,0,0,1,2.6-6.4,4.8,4.8,0,0,1,4-1.2,1.2,1.2,0,0,1-.4,2.4,2.3,2.3,0,0,0-2,.7,6.4,6.4,0,0,0-1.7,4.5,7.5,7.5,0,0,0,5.4,6.6,1.2,1.2,0,0,1,.8,1.5A1.4,1.4,0,0,1,936,377.9Z"/><path class="cls-15" d="M1016.7,372.8c-11.8-39.4-40-40.4-40-40.4l-1.4,56s.3,64.2,0,78.7-.6,133.7-.6,133.7h92C1053.1,497.3,1028.6,412.1,1016.7,372.8Z"/><path class="cls-9" d="M1068.7,601.1H970.1l1.8-77.4.7-28.6,72.8-21.1s2.7,11.5,6.3,28.2C1057.8,531,1066.7,575.2,1068.7,601.1Z"/><path class="cls-17" d="M1051.7,502.2l-79.8,21.5.7-28.6,72.8-21.1S1048.1,485.5,1051.7,502.2Z"/><path class="cls-16" d="M974.4,397.9a49.4,49.4,0,0,1-29.2-9.4H934.8a1.2,1.2,0,1,1,0-2.4H946l.3.2a47.7,47.7,0,0,0,40,7.6,1.4,1.4,0,0,1,1.5.9,1.3,1.3,0,0,1-.9,1.5A48.2,48.2,0,0,1,974.4,397.9Z"/><path class="cls-2" d="M225.2,340.6h24.3s16.4-10.8,13.5-28.4-13.5-35-28-34.7-33.6,14.1-34.3,28.1S206.3,340.3,225.2,340.6Z"/><path class="cls-18" d="M256.6,358.1l.4-20.9-57.9-1.6.5,22.2s-11.7,1.5-13.9,15.8-20,202-21.5,225.6H283.1S270.8,372.6,256.6,358.1Z"/><path class="cls-19" d="M204.3,358a1.2,1.2,0,0,1-1.1-1l-.9-19.7a1.1,1.1,0,0,1,1.1-1.2,1.1,1.1,0,0,1,1.1,1.1l.9,19.7a1,1,0,0,1-1,1.1Z"/><path class="cls-19" d="M209.2,357.7a1.1,1.1,0,0,1-1.1-1.1l-.5-19.7a1,1,0,0,1,1-1.1,1.3,1.3,0,0,1,1.2,1.1l.5,19.7a1.1,1.1,0,0,1-1.1,1.1Z"/><path class="cls-19" d="M215.1,358a1.1,1.1,0,0,1-1.1-1.1V337.8a1.1,1.1,0,1,1,2.2,0v19.1A1.1,1.1,0,0,1,215.1,358Z"/><path class="cls-19" d="M221.5,358.6h0a1.1,1.1,0,0,1-1.1-1.1l.3-19.1a1.1,1.1,0,0,1,1.1-1,1.1,1.1,0,0,1,1.1,1.1l-.3,19.1A1,1,0,0,1,221.5,358.6Z"/><path class="cls-19" d="M227.1,358H227a1.2,1.2,0,0,1-1-1.2l1.5-18.1a1.1,1.1,0,0,1,1.2-1,1,1,0,0,1,1,1.1L228.2,357A1,1,0,0,1,227.1,358Z"/><path class="cls-19" d="M235.2,358.3h-.1a1.1,1.1,0,0,1-1-1.2l1.8-19.3a1.1,1.1,0,0,1,1.2-1,1.1,1.1,0,0,1,1,1.2l-1.8,19.3A1.1,1.1,0,0,1,235.2,358.3Z"/><path class="cls-19" d="M244.4,357.7h-.1a1,1,0,0,1-1-1.1l.2-17.2a1.1,1.1,0,0,1,1.1-1.1h0a1.1,1.1,0,0,1,1.1,1.1l-.2,17.2A1.2,1.2,0,0,1,244.4,357.7Z"/><path class="cls-19" d="M251.1,357.7h0a1.1,1.1,0,0,1-1.1-1.1l.3-16a1.1,1.1,0,0,1,1.2-1,1,1,0,0,1,1,1.1l-.3,15.9A1.1,1.1,0,0,1,251.1,357.7Z"/><path class="cls-19" d="M256.4,358.7h-56a1.1,1.1,0,0,1,0-2.2h56a1.1,1.1,0,0,1,0,2.2Z"/><polygon class="cls-12" points="249.9 461.1 232.2 461.1 231.8 214.3 231.5 12.5 231.5 0 249.1 0 249.1 12.5 249.5 214 249.9 461.1"/><polygon class="cls-13" points="249.5 204.3 249.1 12.5 231.5 12.5 231.8 204.3 249.5 204.3"/><path class="cls-1" d="M231.1,273.2c-.4-3.6,7.1-5.5,12.6-6.1s22.8-5.7,27.5-1,3.9,12-.6,14c3.9,6.4,3.7,12.5-2.2,13.9,2.4,5.1,2.2,14.7-4.7,15.1,2.4,8.7-1.8,12.9-6.9,13.6-10,1.4-21-1.6-23.8-4.7s-1.1-8.7,4.8-10c0,0-6.1-.2-6.1-6.5,0-4.2,5.5-5.9,5.5-5.9s-6.1-2-5.1-9.5C229.3,281.4,231.1,273.2,231.1,273.2Z"/><path class="cls-1" d="M212.5,332.4a16,16,0,0,1-4-2.8c-6.8-6.5-8.5-18.2-7.7-27.2,1.8-19.2,12.5-24.4,17.4-26.8s28.7-5.2,32.4-2.5,2.4,10.1-3.7,13.5-16.5,1.5-21,4.5-5.9,6.2-5.9,6.2,7.4,3.3,9.2,8.8c3,8.9,4.2,25.8-8.4,27.8A14.2,14.2,0,0,1,212.5,332.4Z"/><polygon class="cls-8" points="119.6 22.9 358.1 22.9 360 190.8 119.1 190.8 119.6 22.9"/><path class="cls-19" d="M240.8,515.2a1.3,1.3,0,0,1-.8-.3c-7.7-7.4-15.8-15-21.4-24.7a124,124,0,0,1-9.5-19c-7-17.9-9.9-37-12.1-53.5a1.2,1.2,0,0,1,1-1.3,1.2,1.2,0,0,1,1.2,1c2.1,16.4,5,35.4,11.9,53a128.9,128.9,0,0,0,9.3,18.7c5.5,9.4,13.5,16.9,21.1,24.2a1,1,0,0,1,.1,1.5A.9.9,0,0,1,240.8,515.2Z"/><path class="cls-19" d="M229.9,510.4a.8.8,0,0,1-.7-.2,104.7,104.7,0,0,1-32.1-43.7,1.1,1.1,0,0,1,.7-1.4,1.1,1.1,0,0,1,1.4.6,102.5,102.5,0,0,0,31.3,42.8,1,1,0,0,1,.2,1.5A.9.9,0,0,1,229.9,510.4Z"/><path class="cls-19" d="M190,585.5a1.1,1.1,0,0,1-1.1-1.1,1,1,0,0,1,1-1.1,108.7,108.7,0,0,0,69.9-31.9,1.1,1.1,0,0,1,1.6,1.6A110.6,110.6,0,0,1,190,585.4Z"/><path class="cls-19" d="M228.6,586.4a1.1,1.1,0,0,1-1-.7,1.1,1.1,0,0,1,.6-1.4,54.5,54.5,0,0,0,23.9-17.1,1.1,1.1,0,0,1,1.5-.2,1.2,1.2,0,0,1,.2,1.6A56.3,56.3,0,0,1,229,586.3Z"/><path class="cls-3" d="M255.2,310.6a109.8,109.8,0,0,1-17.5-1.4,1,1,0,0,1-.9-1.2,1,1,0,0,1,1.2-.9,119.4,119.4,0,0,0,24.7,1.1,1.1,1.1,0,0,1,1.2,1,1,1,0,0,1-1,1.1C260.4,310.5,257.8,310.6,255.2,310.6Z"/><path class="cls-3" d="M245.5,296.6l-7.4-.2a1,1,0,0,1-1-1.2,1,1,0,0,1,1.1-1,153,153,0,0,0,27.9-1.2,1,1,0,0,1,1.2.9,1.1,1.1,0,0,1-.9,1.3A161.8,161.8,0,0,1,245.5,296.6Z"/><path class="cls-3" d="M218.2,302.8h-.3a1.1,1.1,0,0,1-.7-1.4,18.3,18.3,0,0,1,9.7-10.9,31.4,31.4,0,0,1,9-2.3h.6a34.9,34.9,0,0,0,7.9-1.8,11.6,11.6,0,0,0,6.3-5,6.5,6.5,0,0,0-.3-7.2,1.1,1.1,0,0,1,.2-1.6,1.1,1.1,0,0,1,1.5.2c2.1,2.5,2.3,6.5.6,9.7a14.9,14.9,0,0,1-7.5,6,40.6,40.6,0,0,1-8.4,1.8h-.6a36.1,36.1,0,0,0-8.3,2.1,16.6,16.6,0,0,0-8.7,9.7A1,1,0,0,1,218.2,302.8Z"/><path class="cls-3" d="M251.7,283a1.1,1.1,0,0,1-.2-2.2l15.8-1.8a1.1,1.1,0,1,1,.2,2.2L251.8,283Z"/><path class="cls-20" d="M642.1,97.7l-27.2.8-.2-44h13.7V86.1l13.4-.3Z"/><path class="cls-20" d="M647.5,98.3V55.9l25.4-.4.2,10.2L661,66v6h12.6V83.1H660.9v5.4l12.5-.4.2,9.6Z"/><path class="cls-20" d="M702.1,73.9a12.2,12.2,0,0,1,4,2.9,13.1,13.1,0,0,1,2.1,3.6c.2.7.5,1.4.7,2.1a7.3,7.3,0,0,1,.3,2.2,14.9,14.9,0,0,1-.6,4.3,13.5,13.5,0,0,1-1.4,3.7,11.8,11.8,0,0,1-2.4,3.1,15,15,0,0,1-3.3,2.3,18,18,0,0,1-3.8,1.6,19,19,0,0,1-4,.5L691,100l-2.7-.7-2.4-.9-2.1-1.2a14.5,14.5,0,0,1-4.7-5.9l8.3-5.3.5.9L689,88a6.2,6.2,0,0,0,1.6,1,4.6,4.6,0,0,0,2.1.5,2.9,2.9,0,0,0,2.4-1.2,3.6,3.6,0,0,0,1-2.5c0-1.8-1.4-3.2-4.3-4.2a23.2,23.2,0,0,1-4.2-1.9,21.6,21.6,0,0,1-3.3-2.7l-1.6-1.7a11.8,11.8,0,0,1-1.3-1.8,12.3,12.3,0,0,1-.8-2.3,9.7,9.7,0,0,1-.4-3.1,16,16,0,0,1,.3-3,13.1,13.1,0,0,1,1-3.2,16.6,16.6,0,0,1,1.9-3,12.1,12.1,0,0,1,3.1-2.8,15.6,15.6,0,0,1,9.9-3.1,14.1,14.1,0,0,1,5.7,1.1,14.6,14.6,0,0,1,3.8,2.3l2.3,2.4-7,6.7a1.2,1.2,0,0,0-.7-.7l-1.1-.6-1.3-.5-1.2-.2a4,4,0,0,0-3,1,3.6,3.6,0,0,0-.9,2.4,4,4,0,0,0,2.1,3.4l1.3.6,1.6.8,1.9,1Z"/><path class="cls-20" d="M734.8,73.9a12.2,12.2,0,0,1,4,2.9,13.1,13.1,0,0,1,2.1,3.6l.7,2.1a7.3,7.3,0,0,1,.3,2.2,14.9,14.9,0,0,1-.6,4.3,13.5,13.5,0,0,1-1.4,3.7,11.8,11.8,0,0,1-2.4,3.1,15,15,0,0,1-3.3,2.3,18,18,0,0,1-3.8,1.6,19,19,0,0,1-4,.5l-2.7-.2-2.7-.7-2.4-.9-2.1-1.2a14.5,14.5,0,0,1-4.7-5.9l8.3-5.3.5.9,1.1,1.1a6.2,6.2,0,0,0,1.6,1,4.6,4.6,0,0,0,2.1.5,2.9,2.9,0,0,0,2.4-1.2,3.6,3.6,0,0,0,1-2.5c0-1.8-1.4-3.2-4.3-4.2a23.2,23.2,0,0,1-4.2-1.9A21.6,21.6,0,0,1,717,77l-1.6-1.7a11.8,11.8,0,0,1-1.3-1.8,12.3,12.3,0,0,1-.8-2.3,9.7,9.7,0,0,1-.4-3.1,16,16,0,0,1,.3-3,13.1,13.1,0,0,1,1-3.2,16.6,16.6,0,0,1,1.9-3,12.1,12.1,0,0,1,3.1-2.8,15.6,15.6,0,0,1,9.9-3.1,14.1,14.1,0,0,1,5.7,1.1,14.6,14.6,0,0,1,3.8,2.3l2.3,2.4-7,6.7a1.2,1.2,0,0,0-.7-.7l-1.1-.6-1.3-.5-1.2-.2a4,4,0,0,0-3,1,3.6,3.6,0,0,0-.9,2.4,4,4,0,0,0,2.1,3.4l1.3.6,1.6.8,1.9,1Z"/><path class="cls-20" d="M618.1,115.5l-.6,41.5-17.2.4L589.4,133v24.6H578.8V114.9h13.3l13.1,28.8v-28Z"/><path class="cls-20" d="M646.2,112.6a22.4,22.4,0,0,1,16.4,7.1,24.3,24.3,0,0,1,4.6,7.3,23.3,23.3,0,0,1,.3,15.6,21.1,21.1,0,0,1-3.7,6.7l-3.7,3.7a22.4,22.4,0,0,1-13,4.1,22.2,22.2,0,0,1-7.2-1.2,23.4,23.4,0,0,1-6.6-3.5l-4.1-4.1a23.4,23.4,0,0,1-3.5-6.6,21.8,21.8,0,0,1-1.2-7.2,22.9,22.9,0,0,1,3.5-12l6.8-6.8a22.8,22.8,0,0,1,5.6-2.3A22.5,22.5,0,0,1,646.2,112.6ZM638,135.4a8.9,8.9,0,0,0,.7,3.4,13.1,13.1,0,0,0,1.9,2.7,9.5,9.5,0,0,0,2.7,1.7,8.1,8.1,0,0,0,7.3-.6l3-3a7.9,7.9,0,0,0,1.2-4.2,8.3,8.3,0,0,0-2.6-5.9,7.8,7.8,0,0,0-2.6-1.7,7.1,7.1,0,0,0-3.2-.7,7.2,7.2,0,0,0-3.3.7,8.8,8.8,0,0,0-4.4,4.4A7.1,7.1,0,0,0,638,135.4Z"/><path class="cls-20" d="M674.8,115.5h14.4v42.9H674.8Z"/><path class="cls-20" d="M717.8,133.9a13.3,13.3,0,0,1,4,2.9,15.8,15.8,0,0,1,2,3.6,17.2,17.2,0,0,1,.7,2.1,7.3,7.3,0,0,1,.3,2.2,19.5,19.5,0,0,1-.5,4.3,17.8,17.8,0,0,1-1.4,3.7,11.8,11.8,0,0,1-2.4,3.1,13.6,13.6,0,0,1-3.4,2.3,18,18,0,0,1-3.8,1.6,18.3,18.3,0,0,1-4,.5l-2.7-.2-2.7-.7-2.4-.9-2-1.2a14,14,0,0,1-4.8-5.9l8.4-5.3a2.1,2.1,0,0,0,.5.9l1,1.1,1.6,1a4.6,4.6,0,0,0,2.1.5,3.2,3.2,0,0,0,2.5-1.2,4.2,4.2,0,0,0,1-2.5c0-1.8-1.5-3.2-4.4-4.2a26.8,26.8,0,0,1-4.2-1.9,21.6,21.6,0,0,1-3.3-2.7l-1.6-1.7a7.1,7.1,0,0,1-1.2-1.8,7.9,7.9,0,0,1-.9-2.3,14.2,14.2,0,0,1-.3-3.1c0-.9.1-2,.2-3a13.1,13.1,0,0,1,1-3.2,16.6,16.6,0,0,1,1.9-3,14,14,0,0,1,3.1-2.8,17.8,17.8,0,0,1,4.1-2.2,16.6,16.6,0,0,1,5.9-.9,14,14,0,0,1,5.6,1.1,13.1,13.1,0,0,1,3.8,2.3l2.3,2.4-6.9,6.7a2.3,2.3,0,0,0-.7-.7l-1.2-.6-1.3-.5-1.2-.2a3.7,3.7,0,0,0-2.9,1,3.3,3.3,0,0,0-1,2.4,4,4,0,0,0,2.1,3.4l1.3.6a6,6,0,0,1,1.6.8l1.9,1Z"/><path class="cls-20" d="M730.7,158.3l-.2-42.4,25.4-.4.3,10.2-12,.3-.2,6h12.6v11.1H744v5.4l12.5-.4.3,9.6Z"/><path class="cls-20" d="M775.2,144.7l-11.1.4.4-30.9,11.5-.4Zm-.3,13.5H764.4v-9.9l10.8.5Z"/><path class="cls-20" d="M198,76.2a21.6,21.6,0,0,1-4.4,2.5,13.6,13.6,0,0,1-5,1.2,1.9,1.9,0,0,1-.5,1l-1,1.3c-.4.5-.9,1-1.3,1.6l-1.5,1.5a28.5,28.5,0,0,1-3.3,2.5c-1.2.9-2.4,1.6-3.7,2.4l-1.4-.4-2.1-.7-2.3-.8-2.2-1-1.7-1c-.4-.4-.7-.7-.7-1V83.8a49.7,49.7,0,0,1,.5-6.3q.6-3.3,1.5-6.6a51,51,0,0,1,1.9-5.5c.8-1.9,1.6-3.7,2.5-5.5s1.9-3.6,2.9-5.4,1.9-3.4,2.9-5,1.9-3.2,2.9-4.7l2.6-4h.5l.6.4.6.6a1,1,0,0,0,.5.4l.6.2.7.5.7.6.6.5a.8.8,0,0,0,.2.4l.2.5a4.3,4.3,0,0,0,.1.5.4.4,0,0,1,.1.3c-.9,2-1.8,3.9-2.9,5.9l-3,5.6-2.9,5.6a51.6,51.6,0,0,0-2.6,5.3,2.5,2.5,0,0,1,1.3-.5l1.6-.2a8.6,8.6,0,0,1,2.7.5l2.6,1.3a10.5,10.5,0,0,1,1.9,1.7,4.7,4.7,0,0,1,1,1.8h.5a6.8,6.8,0,0,0,2.9-.6l2.8-1.1.4-.3h.5a1.2,1.2,0,0,1,.9.4,1.5,1.5,0,0,1,.6.9,10.4,10.4,0,0,1,.3,1.2v1.2a3.5,3.5,0,0,1-.3,1.1A2.4,2.4,0,0,1,198,76.2Zm-15.9,2-.3-.2-.4-.2-1.8-1-.5-.3-.6-.3-1.1-.7-.9-.7-.4.5a10.1,10.1,0,0,0-1,3.1l-.3,3.2c0,.3.1.5.4.5h.7a4.5,4.5,0,0,0,2-.4,2.8,2.8,0,0,1,1.8,0c.6.1,1.1-.3,1.5-1.3S181.9,78.6,182.1,78.2Z"/><path class="cls-20" d="M207.2,86.8l-1.5-.3-2.3-.7-2.3-.9-1.7-.8a11.4,11.4,0,0,1-2.3-1.5,7.7,7.7,0,0,1-1.8-1.8,9.4,9.4,0,0,1-1.2-2.2,7.7,7.7,0,0,1-.4-2.7,9.5,9.5,0,0,1,.5-3.3,21.7,21.7,0,0,1,1.5-3.5A17.8,17.8,0,0,1,198,66a17.5,17.5,0,0,1,2.9-2.6,13.5,13.5,0,0,1,3.3-1.8,9.2,9.2,0,0,1,3.6-.7,8.2,8.2,0,0,1,5,1.4,6.1,6.1,0,0,1,2.1,4.2,4.6,4.6,0,0,1-.6,2.3,10.7,10.7,0,0,1-1.5,2.2,10.4,10.4,0,0,1-2.2,1.9l-2.5,1.6-2.5,1.2-2.3,1.1c-.1,0-.3.2-.4.4s-.1.6-.1.9.1.7.1.9a3,3,0,0,0,.4.8l.7.5h1.2a6.5,6.5,0,0,0,2.9-.7l3-1.8,2.8-2.2,2.4-2,1-1a5.2,5.2,0,0,1,1-1.1,5.7,5.7,0,0,1,1.3-.8,2.9,2.9,0,0,1,1.6-.4,1.5,1.5,0,0,1,1.2.4,2,2,0,0,1,.5,1.4,12.3,12.3,0,0,1-.2,1.9,9.7,9.7,0,0,1-.8,1.9,22.5,22.5,0,0,1-1.7,2.1,27.2,27.2,0,0,1-2.4,2.4L215,82.9l-3,2a17.4,17.4,0,0,1-2.7,1.4A6.3,6.3,0,0,1,207.2,86.8Zm.6-21a3.3,3.3,0,0,0-1.2.5,5.2,5.2,0,0,0-1.1,1l-.8,1.2-.5,1.1a2.9,2.9,0,0,0,1.3-.5l1.2-.8a5.2,5.2,0,0,0,1.1-1,4.1,4.1,0,0,0,.9-1h-.2l-.4-.2Z"/><path class="cls-20" d="M244.5,61.8l-.5.4-.6.5-1.7.8-2.5.8-2.6.7-2.1.5-1.9.2a3.5,3.5,0,0,0-1.1.3,1.7,1.7,0,0,0-.6.6l-.8,1.6-.9,1.9c-.3.9-.6,1.8-1,2.8s-.6,2-.8,3a9.9,9.9,0,0,0-.4,2.8,3.6,3.6,0,0,0,.4,1.9,4.1,4.1,0,0,0,1.9-.6l2.5-1.2,2.6-1.8c.8-.7,1.7-1.3,2.5-2.1l2.3-2.1a12.7,12.7,0,0,0,1.6-2l2.2,1.3,1.7,1.4c-.4.7-.8,1.6-1.4,2.5s-1.2,2-1.9,3L239,81.9a30.8,30.8,0,0,1-2.7,2.5,24.3,24.3,0,0,1-2.8,2,8.3,8.3,0,0,1-2.8.9h-.9l-.8-.2-2.3-.6-2.6-.7-2.5-.9-2.2-1.3a4.9,4.9,0,0,1-1.6-1.6,4.8,4.8,0,0,1-.7-2V78.4a26.4,26.4,0,0,1,.6-5.5,24.5,24.5,0,0,1,2.2-5.4l-2.3.3-1.3.3h-3l-1.3-.2a1.9,1.9,0,0,1-.8-.3,1.1,1.1,0,0,1-.5-.4c-.1-.2-.2-.3-.2-.4a1.4,1.4,0,0,1,.6-1l1.6-1,2.1-.8,2.2-.6,2.2-.5,1.5-.3.9-.4.7-.6.6-.9a9.2,9.2,0,0,0,.9-1.3l1.2-2,1.6-2.4a9.1,9.1,0,0,1,1.8-2.1,5.3,5.3,0,0,1,2-1.2h1.3l1.4.2,1.7.5,1.6.7a5.3,5.3,0,0,1,1.1.9l-.8,1.1-1.1,1.6L234,59.1a13.6,13.6,0,0,0-1.3,2.4l2.4-.4,2.8-.4,2.7-.4,2.5-.3h.3a2.1,2.1,0,0,1,1.5.4,2.5,2.5,0,0,0-.2.7A1.4,1.4,0,0,0,244.5,61.8Z"/><path class="cls-20" d="M266.5,61.8l-.5.4-.6.5-1.7.8-2.5.8-2.6.7-2.1.5-1.9.2a3.5,3.5,0,0,0-1.1.3,1.7,1.7,0,0,0-.6.6l-.8,1.6-.9,1.9c-.3.9-.7,1.8-1,2.8s-.6,2-.8,3a9.9,9.9,0,0,0-.4,2.8,3.6,3.6,0,0,0,.4,1.9,4.1,4.1,0,0,0,1.9-.6l2.5-1.2,2.6-1.8c.8-.7,1.7-1.3,2.5-2.1l2.3-2.1a12.7,12.7,0,0,0,1.6-2l2.2,1.3,1.7,1.4c-.4.7-.8,1.6-1.4,2.5a26.1,26.1,0,0,1-2,3L261,81.9a30.8,30.8,0,0,1-2.7,2.5,24.3,24.3,0,0,1-2.8,2,8.3,8.3,0,0,1-2.8.9h-.9l-.8-.2-2.3-.6-2.6-.7-2.5-.9-2.2-1.3a4.9,4.9,0,0,1-1.6-1.6,3.7,3.7,0,0,1-.7-2V78.4a26.4,26.4,0,0,1,.6-5.5,24.5,24.5,0,0,1,2.2-5.4l-2.3.3-1.3.3h-3l-1.3-.2a1.9,1.9,0,0,1-.8-.3,1.1,1.1,0,0,1-.5-.4c-.1-.2-.2-.3-.2-.4a1.4,1.4,0,0,1,.6-1l1.6-1,2.1-.8,2.2-.6,2.2-.5,1.5-.3.9-.4.7-.6.6-.9.9-1.3,1.2-2,1.6-2.4a9.1,9.1,0,0,1,1.8-2.1,5.3,5.3,0,0,1,2-1.2h1.3l1.4.2,1.7.5,1.6.7a4.5,4.5,0,0,1,1,.9l-.7,1.1-1.1,1.6L256,59.1a13.6,13.6,0,0,0-1.3,2.4l2.4-.4,2.8-.4,2.7-.4,2.5-.3h.3a2.1,2.1,0,0,1,1.5.4,2.5,2.5,0,0,0-.2.7A1.4,1.4,0,0,0,266.5,61.8Z"/><path class="cls-20" d="M274.8,86.8l-1.5-.3-2.3-.7-2.3-.9-1.7-.8a11.4,11.4,0,0,1-2.3-1.5,7.7,7.7,0,0,1-1.8-1.8,6.8,6.8,0,0,1-1.2-2.2,7.7,7.7,0,0,1-.4-2.7,9.5,9.5,0,0,1,.5-3.3,21.7,21.7,0,0,1,1.5-3.5,17.8,17.8,0,0,1,2.3-3.1,17.5,17.5,0,0,1,2.9-2.6,13.5,13.5,0,0,1,3.3-1.8,9.2,9.2,0,0,1,3.6-.7,8.2,8.2,0,0,1,5,1.4,6.1,6.1,0,0,1,2.1,4.2,4.6,4.6,0,0,1-.6,2.3,10.7,10.7,0,0,1-1.5,2.2,10.4,10.4,0,0,1-2.2,1.9l-2.5,1.6-2.5,1.2-2.3,1.1-.4.4c0,.3-.1.6-.1.9s.1.7.1.9l.4.8.7.5h1.2a6.5,6.5,0,0,0,2.9-.7l3-1.8,2.8-2.2,2.4-2a9.4,9.4,0,0,0,1-1,5.2,5.2,0,0,1,1-1.1,5.7,5.7,0,0,1,1.3-.8,2.9,2.9,0,0,1,1.6-.4,1.5,1.5,0,0,1,1.2.4,2,2,0,0,1,.5,1.4,12.3,12.3,0,0,1-.2,1.9,9.7,9.7,0,0,1-.8,1.9,22.5,22.5,0,0,1-1.7,2.1,27.2,27.2,0,0,1-2.4,2.4l-2.8,2.4-3,2a17.4,17.4,0,0,1-2.7,1.4A6.3,6.3,0,0,1,274.8,86.8Zm.6-21a3.3,3.3,0,0,0-1.2.5,5.2,5.2,0,0,0-1.1,1,8.3,8.3,0,0,0-.8,1.2l-.5,1.1a2.9,2.9,0,0,0,1.3-.5l1.2-.8a5.2,5.2,0,0,0,1.1-1,4.1,4.1,0,0,0,.9-1h-.2l-.4-.2Z"/><path class="cls-20" d="M286.8,69.8a11.5,11.5,0,0,0,.1-2,16.2,16.2,0,0,1,.1-2.2,4.1,4.1,0,0,1,.5-1.9,1.7,1.7,0,0,1,1.6-.7,2.2,2.2,0,0,1,1.2.2l1,.6a4.7,4.7,0,0,0,.9.6,1.7,1.7,0,0,0,1,.3,15.4,15.4,0,0,0,4-.4,12.1,12.1,0,0,0,3.2-1.1,22.9,22.9,0,0,0,2.9-1.8l3-2.4.7-.3.8-.2a4,4,0,0,1,1.2,1.1,5.6,5.6,0,0,1,1,1.5,5.5,5.5,0,0,1,.8,1.5,3.5,3.5,0,0,1,.3,1.2,1.4,1.4,0,0,1-.2.6,1.4,1.4,0,0,1-.7.4l-1.1.7-1.3,1.4-1.3,1.7-1.3,2L304,72.5l-1,1.7a31.1,31.1,0,0,0-1.5,3.3,7.2,7.2,0,0,0-.7,3c0,1,.2,1.5.5,1.5a2.4,2.4,0,0,0,1.3-.5l1.9-1.4,2.3-1.9,2.4-2.2,2-2,1.5-1.6c0-.1.1-.2.2-.3l.3-.3.3-.3h1.3l1.4.4,1.1.5a1,1,0,0,1,.5.7,5.1,5.1,0,0,1-.5,1.7,21.2,21.2,0,0,1-1.1,2.1c-.6,1.1-1.4,2.2-2.2,3.4s-1.7,2.4-2.6,3.5a29.1,29.1,0,0,1-3,3.1,24.3,24.3,0,0,1-3.2,2.4l-2.7-.8-2.7-.9-2.5-1.2L295,85.2a8.6,8.6,0,0,1-2.4-2.1,6.8,6.8,0,0,0-.8-1.1,21.6,21.6,0,0,1,.4-4.3l.9-2.7,1.2-2.5c.4-.8.7-1.5,1-2l-1,.2-1.1-.2-.8-.4a10.3,10.3,0,0,1-.4,1.4l-.8,1.5a13,13,0,0,1-1,1.5L289,76a2.4,2.4,0,0,1-1.2.9,2.3,2.3,0,0,1-1.1.2c-.2,0-.4-.1-.7-.4l-.6-1a11.7,11.7,0,0,0-.5-1.1,2,2,0,0,1-.3-.8,1.7,1.7,0,0,1,.3-1l.7-.9a8.6,8.6,0,0,1,.7-1A5.4,5.4,0,0,0,286.8,69.8Z"/><path class="cls-20" d="M165,125.3l-1.5,1.6-1.9,1.3-1.9,1.3-2,1.3-.3,1.3c0,.4-.1.7-.1,1.1v.7l.6-.5,1-.7,2.2-1.7a15.1,15.1,0,0,1,2.6-1.8,16.5,16.5,0,0,1,2.6-1.4,8.6,8.6,0,0,1,2.7-.5,1.7,1.7,0,0,1,1.4.5,2.5,2.5,0,0,1,.9,1.3,4.4,4.4,0,0,1,.6,1.6,10,10,0,0,1,.2,1.6,8.6,8.6,0,0,1-.5,2.7c-.4.9-.7,1.8-1.2,2.7l-1.4,2.6c-.5.9-.9,1.8-1.3,2.6a11.8,11.8,0,0,0,2.3-1.4l2.7-2.2,2.9-2.7,3.1-3,1.3,1.2,1,.9.5.6a.5.5,0,0,1,.3.4l-.8,1.6c-.3.6-.6,1-.9,1.1a33.8,33.8,0,0,1-3.6,4.5c-1.2,1.3-2.4,2.4-3.5,3.4a18.5,18.5,0,0,1-3.4,2.1,7.5,7.5,0,0,1-3,.8l-2.6-.2a8.4,8.4,0,0,1-2.4-.6,6.1,6.1,0,0,1-1.7-1.5,4.8,4.8,0,0,1-.6-2.6,5.7,5.7,0,0,1,.6-2.5c.3-.9.7-1.7,1.1-2.6s.8-1.6,1.3-2.4a18.7,18.7,0,0,0,1.2-2.5l-2.2,1.2-2.4,2a21.3,21.3,0,0,0-2.1,2.2l-1.5,1.9a18.2,18.2,0,0,0-1.5,2.3,10.7,10.7,0,0,1-1.5,2.2,5.8,5.8,0,0,1-1.9,1.6,4.4,4.4,0,0,1-2.6.7h-.7l-1-.2-.8-.5-.5-.6a1.3,1.3,0,0,1-.1-.6c0-.6.1-1.4.2-2.3s.2-1.8.4-2.8.3-2.1.5-3.1l.6-3.2c.2-1,.5-2,.7-2.9a14.9,14.9,0,0,1,.7-2.5l2.9-8.5c.3-.8.7-1.8,1.2-2.9a37,37,0,0,1,1.7-3.5c.7-1.2,1.4-2.4,2.2-3.5a16.5,16.5,0,0,1,2.6-3.2,11.7,11.7,0,0,1,2.9-2.2,6.2,6.2,0,0,1,3.2-.9,7.6,7.6,0,0,1,2.1.3l1.4.7,1.4,1.1a6.4,6.4,0,0,1,1,1.3,3.8,3.8,0,0,1,.5,1.2,11.3,11.3,0,0,1-.3,2.5,25.8,25.8,0,0,1-.9,3.5l-1.5,3.5a21.4,21.4,0,0,1-1.7,3A17.7,17.7,0,0,1,165,125.3Zm-6.1.1a18,18,0,0,0,1.9-2c.5-.8,1.1-1.5,1.5-2.3a14.1,14.1,0,0,0,1.3-2.4,12,12,0,0,0,.9-2.1,7.1,7.1,0,0,0,.5-1.6c.1-.5.2-.8.1-.9l-.4.3-1.2,1.8a27.5,27.5,0,0,0-1.5,2.5l-1.6,2.7-1.2,2.4a8.5,8.5,0,0,0-.7,1.5C158.5,125.6,158.6,125.6,158.9,125.4Z"/><path class="cls-20" d="M190.9,149.2l-1.5-.3-2.3-.7-2.3-.9-1.7-.8a11.4,11.4,0,0,1-2.3-1.5,7.7,7.7,0,0,1-1.8-1.8,6.8,6.8,0,0,1-1.2-2.2,7.7,7.7,0,0,1-.4-2.7,9.5,9.5,0,0,1,.5-3.3,21.7,21.7,0,0,1,1.5-3.5,17.8,17.8,0,0,1,2.3-3.1,17.5,17.5,0,0,1,2.9-2.6,13.5,13.5,0,0,1,3.3-1.8,9.2,9.2,0,0,1,3.6-.7,8.2,8.2,0,0,1,5,1.4,6.1,6.1,0,0,1,2.1,4.2,4.6,4.6,0,0,1-.6,2.3,10.7,10.7,0,0,1-1.5,2.2,10.4,10.4,0,0,1-2.2,1.9l-2.5,1.6-2.5,1.2-2.3,1.1-.4.4c0,.3-.1.6-.1.9s.1.7.1.9l.4.8.7.5h1.2a6.5,6.5,0,0,0,2.9-.7l3-1.8,2.8-2.2,2.4-2,1-1a5.2,5.2,0,0,1,1-1.1,5.7,5.7,0,0,1,1.3-.8,2.9,2.9,0,0,1,1.6-.4,1.5,1.5,0,0,1,1.2.4,2,2,0,0,1,.5,1.4,12.3,12.3,0,0,1-.2,1.9,9.7,9.7,0,0,1-.8,1.9,22.5,22.5,0,0,1-1.7,2.1l-2.4,2.4-2.8,2.4-3,2a17.4,17.4,0,0,1-2.7,1.4A6.3,6.3,0,0,1,190.9,149.2Zm.6-21a3.3,3.3,0,0,0-1.2.5,5.2,5.2,0,0,0-1.1,1,8.3,8.3,0,0,0-.8,1.2l-.5,1.1a2.9,2.9,0,0,0,1.3-.5l1.2-.8a5.2,5.2,0,0,0,1.1-1,4.1,4.1,0,0,0,.9-1h-.2l-.4-.2Z"/><path class="cls-20" d="M237.8,133.8a3.6,3.6,0,0,1,1.3,1.5,3.8,3.8,0,0,1,.4,1.7,5.3,5.3,0,0,1-.1,1.3l-.3,1.1a16.8,16.8,0,0,1-2,2.9,21.7,21.7,0,0,1-2.6,2.7,23.7,23.7,0,0,1-3,2.3,20.7,20.7,0,0,1-3.2,1.9l-3.3,1.2a18.8,18.8,0,0,1-3.1.4l-2.3-.2-2-.7a6.1,6.1,0,0,1-1.5-1.2,2,2,0,0,1-.6-1.5,5,5,0,0,1,.2-1.2,14.6,14.6,0,0,1-3.3,1.2,13.7,13.7,0,0,1-3.4.4,12,12,0,0,1-3.5-.4,5.1,5.1,0,0,1-2.2-1.2,10.4,10.4,0,0,1-1.9-3.6,12.1,12.1,0,0,1-.6-3.8,11.3,11.3,0,0,1,.5-3.2,15.9,15.9,0,0,1,1.5-2.9,12.1,12.1,0,0,1,2.1-2.4,15,15,0,0,1,2.5-1.9,13.9,13.9,0,0,1,2.8-1.2,8.4,8.4,0,0,1,2.7-.4,11.8,11.8,0,0,1,4.1.7,18.6,18.6,0,0,1,4.2,2.5l.7-.5,1-.2h.5l.6.3h.8l.8.3a15.1,15.1,0,0,1,1.8,1.8,3.3,3.3,0,0,1,.7,1.5,4.5,4.5,0,0,1-.5,1.7,16.2,16.2,0,0,1-1,1.8,26.1,26.1,0,0,0-1.9,3.7,20.1,20.1,0,0,0-1,3.5.6.6,0,0,0,.5.2,2.6,2.6,0,0,0,1.4-.5l2.3-1.4c.8-.6,1.7-1.2,2.6-2l2.7-2.2,2.5-2.2Zm-22-1.7-1.1.6-1.3,1.2-1.2,1.7a18.8,18.8,0,0,0-1.2,1.8,6.7,6.7,0,0,0-.7,1.8,5,5,0,0,0-.3,1.6,1.5,1.5,0,0,0,.2.8h.8a4.8,4.8,0,0,0,2.6-.7,14.3,14.3,0,0,0,2.3-2,18.5,18.5,0,0,0,1.9-2.7c.5-1,1-1.9,1.4-2.8s-.1-.3-.2-.5l-.7-.4-1-.4h-1.5Z"/><path class="cls-20" d="M248.7,149.6a5,5,0,0,1-1.9-.4l-2.5-1c-.9-.5-1.8-.9-2.7-1.5l-2.5-1.5-1.8-1.5c-.4-.4-.7-.7-.7-1s-.1-1.4-.1-2.2a33.8,33.8,0,0,1,.7-6.3,57.9,57.9,0,0,1,1.8-6.3,47.3,47.3,0,0,1,2.5-6.2l2.7-5.8,2.2-4.1a15,15,0,0,1,.9-1.8l1.4-2,1.8-2,2-1.7a9.4,9.4,0,0,1,2.2-1.2,6.7,6.7,0,0,1,2.4-.4,3.7,3.7,0,0,1,1.7.5,8.6,8.6,0,0,1,1.7,1.3l1.5,1.6,1.4,1.8a8,8,0,0,1,.9,1.4c.3.5.4.7.4.9v.4a17,17,0,0,1-.9,5.4,29.1,29.1,0,0,1-2.3,5.5,44.2,44.2,0,0,1-3.4,5.4c-1.3,1.7-2.7,3.3-4.1,4.8a53.5,53.5,0,0,1-4.2,4.1,46.8,46.8,0,0,1-4.1,3.2,3.2,3.2,0,0,0,.1.8l.3,1.1a3.1,3.1,0,0,0,.5,1,.7.7,0,0,0,.6.4l1-.3,1.2-.8,2.5-1.6,2.3-1.8,2-1.8,1.8-1.6a5,5,0,0,1,1.3-1,1.9,1.9,0,0,1,1-.3,2,2,0,0,1,1.5.5,1.7,1.7,0,0,1,.5,1.5,4.9,4.9,0,0,1-.7,2.3,14.5,14.5,0,0,1-1.8,3.1,24.4,24.4,0,0,1-2.6,3.2,21.3,21.3,0,0,1-3,3l-2.9,2.1A6.3,6.3,0,0,1,248.7,149.6Zm9.7-38.6a33.8,33.8,0,0,0-2.7,3.6c-.9,1.3-1.7,2.7-2.6,4.2s-1.6,3-2.5,4.7l-2.5,5.6h.1a13.3,13.3,0,0,0,2.4-1.9,19.4,19.4,0,0,0,2.3-2.6,17.4,17.4,0,0,0,2-3c.6-1.1,1.1-2,1.5-2.9l.8-2a16.7,16.7,0,0,0,.8-2,6.4,6.4,0,0,0,.6-1.8,5.7,5.7,0,0,0,.3-1.8h-.5Z"/><path class="cls-20" d="M284.5,124.2l-.5.4a1,1,0,0,1-.6.5l-1.6.8-2.5.8-2.6.7-2.1.5-1.9.2a2.9,2.9,0,0,0-1.1.3,1.9,1.9,0,0,0-.7.6l-.8,1.6-.8,1.9c-.3.9-.7,1.8-1,2.8l-.9,3a14.9,14.9,0,0,0-.3,2.8,5,5,0,0,0,.3,1.9,4.5,4.5,0,0,0,2-.6l2.4-1.2,2.6-1.8a26.5,26.5,0,0,0,2.6-2.1l2.2-2.1a14,14,0,0,0,1.7-2,10.7,10.7,0,0,1,2.1,1.3,6.1,6.1,0,0,1,1.7,1.4c-.3.7-.8,1.6-1.3,2.5s-1.3,2-2,3l-2.4,2.9a16,16,0,0,1-2.7,2.5,17.9,17.9,0,0,1-2.8,2,7.2,7.2,0,0,1-2.7.9h-.9l-.9-.2-2.2-.6-2.6-.7-2.5-.9a11.6,11.6,0,0,1-2.2-1.3,4.9,4.9,0,0,1-1.6-1.6,3.1,3.1,0,0,1-.7-2c0-.3-.1-.5-.1-.8v-.8a26.7,26.7,0,0,1,.7-5.5,30.1,30.1,0,0,1,2.1-5.4l-2.2.3-1.3.3h-3l-1.3-.2a2.4,2.4,0,0,1-.9-.3l-.5-.4a.8.8,0,0,1-.1-.4,1.4,1.4,0,0,1,.6-1l1.6-1,2.1-.8,2.2-.6,2.2-.5,1.4-.3,1-.4.7-.6a3.5,3.5,0,0,0,.6-.9,10.5,10.5,0,0,0,.8-1.3,23.6,23.6,0,0,0,1.3-2c.4-.8,1-1.6,1.5-2.4a12.9,12.9,0,0,1,1.9-2.1,4.7,4.7,0,0,1,2-1.2h1.3l1.4.2,1.7.5,1.6.7a4.5,4.5,0,0,1,1,.9l-.7,1.1-1.2,1.6-1.5,2.3a13.6,13.6,0,0,0-1.3,2.4l2.4-.4,2.7-.4,2.8-.4,2.5-.3h.2a2.2,2.2,0,0,1,1.6.4l-.3.7A2.5,2.5,0,0,1,284.5,124.2Z"/><path class="cls-20" d="M298.3,125.3l-1.6,1.6-1.8,1.3-2,1.3-2,1.3-.3,1.3v1.8l.6-.5,1-.7,2.2-1.7a20.3,20.3,0,0,1,2.6-1.8,17.4,17.4,0,0,1,2.7-1.4,8.6,8.6,0,0,1,2.7-.5,1.7,1.7,0,0,1,1.3.5,3.4,3.4,0,0,1,1,1.3,7.5,7.5,0,0,1,.5,1.6,10,10,0,0,1,.2,1.6,8.6,8.6,0,0,1-.5,2.7,15.9,15.9,0,0,1-1.2,2.7l-1.4,2.6a19.6,19.6,0,0,0-1.2,2.6l2.2-1.4,2.7-2.2,2.9-2.7,3.1-3,1.4,1.2.9.9.6.6.3.4-.9,1.6c-.3.6-.6,1-.9,1.1a33.4,33.4,0,0,1-3.5,4.5c-1.3,1.3-2.4,2.4-3.6,3.4a18.5,18.5,0,0,1-3.4,2.1,7.5,7.5,0,0,1-3,.8l-2.6-.2a8.4,8.4,0,0,1-2.4-.6,6.1,6.1,0,0,1-1.7-1.5,4.8,4.8,0,0,1-.6-2.6,11.4,11.4,0,0,1,.6-2.5c.3-.9.7-1.7,1.1-2.6l1.3-2.4,1.3-2.5-2.3,1.2-2.4,2-2.1,2.2-1.5,1.9-1.5,2.3a10.7,10.7,0,0,1-1.5,2.2,5.8,5.8,0,0,1-1.9,1.6,4.4,4.4,0,0,1-2.6.7h-.7l-1-.2-.8-.5-.5-.6a1.3,1.3,0,0,1-.1-.6c0-.6.1-1.4.2-2.3s.2-1.8.4-2.8.3-2.1.5-3.1l.6-3.2c.3-1,.5-2,.7-2.9s.5-1.8.7-2.5l3-8.5a18.3,18.3,0,0,1,1.1-2.9l1.7-3.5c.7-1.2,1.4-2.4,2.2-3.5a21.3,21.3,0,0,1,2.6-3.2,11.7,11.7,0,0,1,2.9-2.2,6.5,6.5,0,0,1,3.2-.9,7.6,7.6,0,0,1,2.1.3l1.4.7,1.4,1.1a6.4,6.4,0,0,1,1,1.3,2.4,2.4,0,0,1,.5,1.2,11.3,11.3,0,0,1-.3,2.5,16.4,16.4,0,0,1-.9,3.5,36.8,36.8,0,0,1-1.5,3.5,21.4,21.4,0,0,1-1.7,3Zm-6.2.1a18,18,0,0,0,1.9-2l1.6-2.3,1.3-2.4.9-2.1.5-1.6q.1-.7,0-.9t-.3.3a7,7,0,0,0-1.2,1.8l-1.6,2.5-1.5,2.7-1.3,2.4a3.7,3.7,0,0,0-.6,1.5C291.7,125.6,291.8,125.6,292.1,125.4Z"/><path class="cls-20" d="M312.8,145.2l.9-1.5a4.5,4.5,0,0,1,.9-1,2.6,2.6,0,0,1,1.1-.7,2.8,2.8,0,0,1,1.3-.3,3.4,3.4,0,0,1,1.4.5l1.6,1.1a10.7,10.7,0,0,1,1.4,1.6,4.1,4.1,0,0,1,.5,1.8,1.6,1.6,0,0,1-.3.8l-.8,1.2a6.9,6.9,0,0,1-1.1,1.3,14.2,14.2,0,0,1-1.3,1.2l-2.2-.6a7.2,7.2,0,0,1-2-.9,4.1,4.1,0,0,1-1.4-1.2,2.2,2.2,0,0,1-.5-1.6A3,3,0,0,1,312.8,145.2Zm21.4-26.3c-.8,2.1-1.5,4.2-2.3,6.2a48.7,48.7,0,0,1-2.4,5.7,58.6,58.6,0,0,1-3,5.5c-1.1,1.7-2.4,3.5-3.8,5.3l-1.3-.7-1.3-.7-1.2-.7-1-.7a8.6,8.6,0,0,1,.3-1.7,24.2,24.2,0,0,1,.6-2.8c.3-1.1.6-2.3,1-3.6l1.2-3.9c.4-1.4.9-2.7,1.4-4.1s1-2.5,1.4-3.7a30.2,30.2,0,0,1,1.5-3.1,9.5,9.5,0,0,1,1.4-2.1,1.6,1.6,0,0,1,.8-.6,2,2,0,0,1,1.1-.3l1.3.2,1.4.4,1.5.7,1.2,1c.1.1.1.2.1.4l.6.5c.1.2.3.4.3.6Z"/><path class="cls-20" d="M873.2,152.5c-.1.4-.2.9-.4,1.5a11.8,11.8,0,0,0-.7,2,17.2,17.2,0,0,1-.7,2.1l-.6,2.3,2.2-.8,2.3-.5,2.2-.5,2.3-.2,2.2.3a6.8,6.8,0,0,1,2,.7,3.7,3.7,0,0,1,1.5,1.3,2.8,2.8,0,0,1,.6,1.8l-1.9.9-2.8,1-3.2,1.1-3.5,1.2-3.5,1.2-3.1,1.3c-.3.9-.6,1.8-1,2.8l-1.2,3c-.5,1-.9,2-1.3,3s-.8,1.9-1.2,2.7a7.7,7.7,0,0,1-1.1,1.9,11.9,11.9,0,0,1-1.8,1.5l-1.9-.7-3.3-1.1-.8-.4c-.3-.2-.4-.4-.4-.5v-.6a1.3,1.3,0,0,0,.1-.6h.1c.3-1.2.7-2.5,1.1-4l1.5-4.5c.5-1.7,1.1-3.3,1.6-5.1s1.1-3.5,1.6-5.3,1-3.5,1.4-5.3.8-3.5,1.1-5.3.1-1,.1-1.5l.3-1.4a2.8,2.8,0,0,1,.8-1.1,5.3,5.3,0,0,1,1.5-.7h1.3l2.2-.4,2.1-.4,3.5-.8,3.5-1,3.5-.9c1.2-.3,2.4-.7,3.6-.9l1.8-.4,1.9-.2a2.7,2.7,0,0,1,1.6.4,3.3,3.3,0,0,1,1.3,1.1,8.3,8.3,0,0,1,1.1,1.7l1.2,2.4-10.4,3.2Z"/><path class="cls-20" d="M884.8,180.1l-.4-.8-.5-.7c.1-.3.1-.5.2-.8l.2-.7c.4-1.6.9-3.3,1.4-5.2s1.1-3.9,1.7-5.9l1.8-5.9q.9-3,1.8-5.7c.5-1.7,1.1-3.3,1.6-4.8l1.5-3.5a2.8,2.8,0,0,1,1.4-.9,12.5,12.5,0,0,1,2.7-.8l3.6-.8,4.2-.7,4.4-.5,4-.4,3.3-.3h2.2l1.8.2,1.4.5a2.6,2.6,0,0,1,.9.9,3.3,3.3,0,0,1,.3,1.5v.2a1.8,1.8,0,0,1-.7.5,2.3,2.3,0,0,1-1.1.3l-.8.2q-4.2,1.2-8.4,2.1c-2.8.6-5.6,1.2-8.5,1.6a1.9,1.9,0,0,0-1,.5,6.2,6.2,0,0,0-.4,1.4c-.2.5-.3,1-.5,1.5l-.4,1.3-.5,1.2c-.1.5-.3,1-.4,1.5l1.9-.2,2.3-.3,2.1-.3,1.8-.2a4,4,0,0,1,1.7.3l1.4.5a2.6,2.6,0,0,1,.9.9,3.7,3.7,0,0,1,.5,1.1,5.1,5.1,0,0,1,.2,1.3l-1.2.6-2.9.8-2.9.6-3,.5-3.1.7-1.1.2-.6.2-.3.5a3.4,3.4,0,0,0-.4,1l-1.1,2.6c-.4.9-.7,1.8-1,2.7l-.9,2.7c-.3.8-.6,1.6-.8,2.3l3.8-.6,4-1,4.1-1,4.1-1,4-.6,3.8-.3a2.5,2.5,0,0,1,2,.6,1.8,1.8,0,0,1,.6,1.4,2.6,2.6,0,0,1-.3,1.1l-.6.9-4.4,1.5-4.7,1.8-4.9,1.8-5.1,1.6-.9.2-1.8.4-2.3.5-2.7.5-2.6.3-2.3.2-1.6-.2Z"/><path class="cls-20" d="M975.8,146.8l-.3.6-3.6,3.1-4,3.6c-1.4,1.4-3,2.9-4.6,4.7s-3.6,4-5.7,6.4l-1.7,2.1-2.1,2.8-2.3,3.3c-.8,1.1-1.5,2.2-2.1,3.2a21.4,21.4,0,0,0-1.6,2.8,7.6,7.6,0,0,0-.7,1.9,1.2,1.2,0,0,1-.3.9.9.9,0,0,1-.6.6l-.8.2h-2.3l-1.3-.2-1-.2-.4-.2-1.7-1.4a30.7,30.7,0,0,1-1.7-3.1l-1.3-3.1a24.3,24.3,0,0,1-.9-3c-.2-1-.4-1.9-.5-2.6l-1.4,2.9-1.4,3.3a22.2,22.2,0,0,0-1,3.1,8.2,8.2,0,0,0-.5,2.2,3.3,3.3,0,0,1-.3,1.5,2.2,2.2,0,0,1-.5.8,1.8,1.8,0,0,1-.9.4h-2a.9.9,0,0,1-.7-.3,14.5,14.5,0,0,0-1.8-1.6l-1.7-1.8a1.1,1.1,0,0,1-.3-.8c0-.3-.1-.7-.1-1.1s-.1-2.5-.1-3.8V155.3c0-1.6.1-3,.1-4.3h0a2.8,2.8,0,0,1,.1-.9,1.4,1.4,0,0,1,.3-.9,1,1,0,0,1,.6-.5l1-.2a3.3,3.3,0,0,1,1.9.6,5.2,5.2,0,0,1,1.6,1.4,10.9,10.9,0,0,1,1.3,1.7l1,1.5a3.4,3.4,0,0,1,.6,1.2,4.9,4.9,0,0,1,.1,1.2v.3c-.1,2.3-.2,4.3-.3,6.2s-.2,3.6-.3,5.2a12.9,12.9,0,0,0,1.3-2.4c.5-.9,1-1.8,1.6-2.7a16.4,16.4,0,0,1,1.6-2.6,11.6,11.6,0,0,1,1.6-2l.9.2.8.2,2.6,1.8a6.9,6.9,0,0,1,.4,1l.3,1.1c.2.6.3,1.2.5,1.8s.3,1.1.4,1.7a14.2,14.2,0,0,1,.5,1.6l.6,1.5a55.4,55.4,0,0,1,5.8-7.2,73.9,73.9,0,0,1,7-6.7c2.5-2,5.2-3.9,7.9-5.7a66.6,66.6,0,0,1,8.3-4.4h1.1l1.5.4,1.3.5.6.2Z"/><path class="cls-20" d="M960.1,180.1l-.4-.8-.5-.7c.1-.3.1-.5.2-.8l.2-.7c.4-1.6.9-3.3,1.4-5.2s1.1-3.9,1.7-5.9l1.8-5.9,1.8-5.7c.5-1.7,1.1-3.3,1.6-4.8l1.5-3.5a2.8,2.8,0,0,1,1.4-.9,12.5,12.5,0,0,1,2.7-.8l3.6-.8,4.2-.7,4.4-.5,4-.4,3.3-.3h2.2l1.8.2,1.4.5a2.6,2.6,0,0,1,.9.9,3.3,3.3,0,0,1,.3,1.5v.2a1.8,1.8,0,0,1-.7.5,2.3,2.3,0,0,1-1.1.3l-.8.2-8.4,2.1c-2.8.6-5.6,1.2-8.5,1.6a1.9,1.9,0,0,0-1,.5,6.2,6.2,0,0,0-.4,1.4c-.2.5-.3,1-.5,1.5l-.4,1.3-.5,1.2a8.3,8.3,0,0,0-.4,1.5l1.9-.2,2.2-.3,2.2-.3,1.8-.2a4,4,0,0,1,1.7.3l1.4.5a2.6,2.6,0,0,1,.9.9,3.7,3.7,0,0,1,.5,1.1,5.1,5.1,0,0,1,.2,1.3l-1.2.6-2.9.8-2.9.6-3,.5-3.1.7-1.1.2-.6.2-.3.5a3.4,3.4,0,0,0-.4,1l-1.1,2.6c-.4.9-.7,1.8-1,2.7l-.9,2.7c-.3.8-.6,1.6-.8,2.3l3.8-.6,4-1,4.1-1,4.1-1,4-.6,3.8-.3a2.5,2.5,0,0,1,2,.6,1.8,1.8,0,0,1,.6,1.4,2.6,2.6,0,0,1-.3,1.1,3.5,3.5,0,0,1-.6.9l-4.4,1.5-4.7,1.8-4.9,1.8-5.1,1.6-.9.2-1.8.4-2.3.5-2.7.5-2.6.3-2.3.2-1.6-.2Z"/><path class="cls-20" d="M1029,189.6a17.7,17.7,0,0,1-4.9-.6,13.8,13.8,0,0,1-3.7-1.6,12.5,12.5,0,0,1-2.7-2.4,15.7,15.7,0,0,1-2-3c-.6-1.1-1-2.2-1.5-3.3s-.8-2.3-1.1-3.4l-.9-2.5a26.7,26.7,0,0,0-.9-2.6,16,16,0,0,0-1-2.3,7.4,7.4,0,0,0-1-1.6h-2.1c-.4,1.3-.7,2.6-1,3.9s-.6,2.7-1,4.1-.7,2.7-1.1,4.1a34.5,34.5,0,0,1-1.4,4.2h-1.4l-2.3-.2a6.6,6.6,0,0,1-2.1-.8,4.7,4.7,0,0,1-1.5-1.3,3.6,3.6,0,0,1-.5-2.1v-.2a14.5,14.5,0,0,1,.4-3.1,33.5,33.5,0,0,1,1.1-4.6c.5-1.8,1-3.6,1.6-5.5l1.8-5.8c.6-1.9,1.2-3.7,1.7-5.5s1.1-3.3,1.6-4.6.8-2.4,1-3.2l.4-1.2.4-.2a1.1,1.1,0,0,1,.8-.3l1.2-.4,2-.6,2.5-.6,2.8-.6,2.9-.5h2.6a22.6,22.6,0,0,1,5.5.6,11.9,11.9,0,0,1,4.1,1.8,8.4,8.4,0,0,1,2.5,3.1,9.9,9.9,0,0,1,.9,4.4,11.4,11.4,0,0,1-2.9,7.6,11.6,11.6,0,0,1-2.9,2.5,18.6,18.6,0,0,1-3.3,1.9l-3.3,1.2-2.7.8,1.6,2.8,1.6,3.2a38.6,38.6,0,0,1,1.7,4.3c.6,1.8,1.2,2.9,1.9,3.4a10,10,0,0,1,1.9,2.1,18.4,18.4,0,0,0,2.1,2.5l1.3,1,1.6,1.1,1.3,1.1a1.9,1.9,0,0,1,.5,1,.8.8,0,0,1-.5.8,2.4,2.4,0,0,1-1.1.6l-1.4.4Zm-10.6-39.9-3.6.3a13.1,13.1,0,0,0-2.7.7l-.8,2.6-.9,2.8c-.3.9-.6,1.7-.8,2.5a11.5,11.5,0,0,0-.5,2h.6a24.7,24.7,0,0,0,3.6-.4,20,20,0,0,0,3.5-.9l3.4-1.4a17.8,17.8,0,0,0,2.7-1.7,5.5,5.5,0,0,0,1.9-1.8,2.5,2.5,0,0,0,.7-1.7,2,2,0,0,0-.6-1.4l-1.6-.9-2.2-.5Z"/><path class="cls-20" d="M879.6,246a6.3,6.3,0,0,1-2-.4,17.7,17.7,0,0,1-2.8-1.1,24.5,24.5,0,0,1-3.3-1.6l-3.4-2a36.2,36.2,0,0,1-3.2-2.2l-2.7-2.3a11.8,11.8,0,0,1-1.9-2.2,3.7,3.7,0,0,1-.8-2v-1a2.8,2.8,0,0,1,.1-.9,15.4,15.4,0,0,1,1.4-5.4,23.1,23.1,0,0,1,3.1-5.2,33.7,33.7,0,0,1,4.5-4.8,35.2,35.2,0,0,1,5.6-3.9,33.9,33.9,0,0,1,6.5-2.6,26.1,26.1,0,0,1,6.9-.9,8.2,8.2,0,0,1,2.8.4,5.7,5.7,0,0,1,2.2,1.1,6.5,6.5,0,0,1,1.5,1.8,7.2,7.2,0,0,1,.8,2.2,5.9,5.9,0,0,1,.2,1.4,3.6,3.6,0,0,1-.7,2.2,12.9,12.9,0,0,1-1.6,1.7l-1.9,1.1-1.2.6-.6.3h-.3l-.7-.5-.7-.6-3.9-4.1a10.1,10.1,0,0,0-3,1.4,20,20,0,0,0-3,2.3,23.3,23.3,0,0,0-2.6,2.8,21,21,0,0,0-2.2,3.3,16.3,16.3,0,0,0-1.4,3.4,10.6,10.6,0,0,0-.5,3.5,2.6,2.6,0,0,0,.3,1,3.4,3.4,0,0,0,.8,1.4,7,7,0,0,0,1.4,1.6,12.9,12.9,0,0,0,1.7,1.6l2,1.3a8.1,8.1,0,0,0,1.8,1,5.3,5.3,0,0,0,1.6.4,3.9,3.9,0,0,0,1.4-.5l2.3-1.2,2.8-1.7,3.1-2,3.1-1.9,2.8-1.8a11.7,11.7,0,0,1,2.3-1.1,3.6,3.6,0,0,1,1.3-.5,1.1,1.1,0,0,1,.8.3,1.2,1.2,0,0,1,.3.9,5.9,5.9,0,0,1-1.1,2.9,21.4,21.4,0,0,1-2.9,3.3,33.5,33.5,0,0,1-4,3.3c-1.5,1.1-3.1,2.1-4.6,3a43.8,43.8,0,0,1-4.5,2.1A12.4,12.4,0,0,1,879.6,246Z"/><path class="cls-20" d="M926,246.7a20.9,20.9,0,0,1-3.3-.7,9.1,9.1,0,0,1-2.2-1.3,4.3,4.3,0,0,1-1.4-1.6,10.7,10.7,0,0,1-.7-1.9,17,17,0,0,1-.4-2.2,19.5,19.5,0,0,1-.2-2.3l-2.7-.6-2.9-.4-2.8-.3-2.7-.2-1.4,2-1.3,1.7-1.2,1.8-1.2,1.8a17.4,17.4,0,0,0-1.1,1.8l-.8.9a4.6,4.6,0,0,0-.7.7l-.8-.2-1.3-.6-1.5-.8-1.5-.9-1.3-.9-.7-.7.3-.5.4-.6c.8-.1,1.9-1.3,3.2-3.7a48.8,48.8,0,0,1,4.6-6.6c1.7-2.1,3.5-4.3,5.6-6.5s4.1-4.6,6.3-6.8,4.4-4.5,6.7-6.7,4.5-4.1,6.8-6l2,.2,2.2.5,1.7.6c.4.2.7.4.7.6q-.7,2.7-1.5,5.7c-.5,2-.9,4-1.3,6.1s-.8,4.2-1.1,6.3a42.2,42.2,0,0,0-.4,6c0,1.2,0,2.2.1,3.3s.1,2.2.2,3.2l.3,3.2c.1,1.1.2,2.1.2,3a4.9,4.9,0,0,1-.6,2.7,2.1,2.1,0,0,1-1.9.9Zm-15.8-16.1,3.7.4,3.7.5c0-.2.1-.5.1-.7s.1-.5.2-.8.3-1.9.5-2.9.3-2.1.5-3,.4-1.8.6-2.5.3-1.2.4-1.4l-2.1,2.1-2.5,2.8c-.9,1-1.8,1.9-2.6,2.9Z"/><path class="cls-20" d="M965.2,252a17.7,17.7,0,0,1-4.9-.6,13.8,13.8,0,0,1-3.7-1.6,15.5,15.5,0,0,1-2.7-2.4,15.7,15.7,0,0,1-2-3c-.5-1.1-1-2.2-1.4-3.3l-1.2-3.4c-.3-.8-.5-1.7-.8-2.5l-.9-2.6c-.4-.8-.7-1.6-1-2.3a7.4,7.4,0,0,0-1.1-1.6h-2.1c-.3,1.3-.7,2.6-1,3.9s-.6,2.7-1,4.1-.6,2.7-1,4.1a35.2,35.2,0,0,1-1.5,4.2h-1.4l-2.3-.2a6.6,6.6,0,0,1-2.1-.8,4.7,4.7,0,0,1-1.5-1.3,4.6,4.6,0,0,1-.5-2.1v-.2a14.5,14.5,0,0,1,.4-3.1c.3-1.4.6-2.9,1.1-4.6s1-3.6,1.6-5.5l1.8-5.8,1.8-5.5c.5-1.7,1-3.3,1.5-4.6s.8-2.4,1.1-3.2l.3-1.2.4-.2a1.3,1.3,0,0,1,.8-.3l1.2-.4,2-.6,2.5-.6,2.9-.6,2.8-.5h2.6a22.6,22.6,0,0,1,5.5.6,11.9,11.9,0,0,1,4.1,1.8,7.5,7.5,0,0,1,2.5,3.1,9.9,9.9,0,0,1,.9,4.4,9.3,9.3,0,0,1-.8,4.2,10.8,10.8,0,0,1-2.1,3.4,11.6,11.6,0,0,1-2.9,2.5,18.6,18.6,0,0,1-3.3,1.9,21.9,21.9,0,0,1-3.3,1.2,19.5,19.5,0,0,1-2.7.8l1.6,2.8c.5,1,1.1,2.1,1.6,3.2a38.6,38.6,0,0,1,1.7,4.3c.6,1.8,1.2,2.9,1.9,3.4a13.7,13.7,0,0,1,2,2.1,10.3,10.3,0,0,0,2.1,2.5l1.2,1,1.6,1.1,1.3,1.1a1.4,1.4,0,0,1,.5,1,.9.9,0,0,1-.4.8l-1.2.6-1.4.4Zm-10.6-39.9a21.9,21.9,0,0,0-3.6.3,13.1,13.1,0,0,0-2.7.7l-.8,2.6-.9,2.8c-.3.9-.6,1.7-.8,2.5a11.5,11.5,0,0,0-.5,2h.6a22,22,0,0,0,3.6-.4,23.7,23.7,0,0,0,3.6-.9l3.3-1.4a18.9,18.9,0,0,0,2.8-1.7,6.6,6.6,0,0,0,1.9-1.8,3.1,3.1,0,0,0,.7-1.7,2,2,0,0,0-.6-1.4l-1.6-.9-2.3-.5Z"/><path class="cls-20" d="M964.4,239.3a1.1,1.1,0,0,0,.1.5C964.4,240,964.4,239.9,964.4,239.3Zm13.5.4,2.4-.3a13.4,13.4,0,0,0,2.7-.7,18.5,18.5,0,0,0,2.9-1.3,13.8,13.8,0,0,0,2.5-1.7,9.1,9.1,0,0,0,1.8-2.1,5.8,5.8,0,0,0,.9-2.5v-.2a2.1,2.1,0,0,0-.8-1.4,10.5,10.5,0,0,0-1.9-1.5l-2.8-1.6-3.2-1.7-3.1-1.8a22.7,22.7,0,0,1-2.8-2.1,13.3,13.3,0,0,1-2-2.2,5.5,5.5,0,0,1-.7-2.5,4.4,4.4,0,0,1,1-2.8,10.6,10.6,0,0,1,2.4-2.3,16.6,16.6,0,0,1,3.5-1.9l3.8-1.4a27.4,27.4,0,0,1,3.7-.8l3-.3a12.3,12.3,0,0,1,2.7.2,7.1,7.1,0,0,1,2.2.6,5.8,5.8,0,0,1,1.7,1.4,5.3,5.3,0,0,1,.9,2,7.8,7.8,0,0,1,.3,2.2v.4l-4.3.3-4.3.2-3.7.4a5.3,5.3,0,0,0-2.5,1.1l2.4,1.2,3.6,1.7,3.4,1.9a23.2,23.2,0,0,1,3.1,1.9,14.3,14.3,0,0,1,2.6,2.2,8.1,8.1,0,0,1,1.7,2.4,6.6,6.6,0,0,1,.6,2.7v.5a13.5,13.5,0,0,1-1.1,5,15,15,0,0,1-2.5,4,15.5,15.5,0,0,1-3.6,3.1,21.8,21.8,0,0,1-4.3,2.2,25.4,25.4,0,0,1-4.7,1.4,38.9,38.9,0,0,1-4.7.4,24.9,24.9,0,0,1-4.9-.4,35.2,35.2,0,0,1-4.1-1,19.3,19.3,0,0,1-3.2-1.3,15.3,15.3,0,0,1-2.3-1.5,6.4,6.4,0,0,1-1.4-1.5l-.3-.5a1.1,1.1,0,0,1,.1-.5,3.8,3.8,0,0,1,.5-1.7l1.2-.6,1.9-.2a3.6,3.6,0,0,1,2.1.5,7.7,7.7,0,0,1,2.1,1.8,2,2,0,0,0,2.4,1A9.7,9.7,0,0,1,977.9,239.7Z"/><path class="cls-20" d="M1005.3,241.3l.9-1.5a5.2,5.2,0,0,1,1-1.1,2.7,2.7,0,0,1,1-.6,3.1,3.1,0,0,1,1.3-.3,3,3,0,0,1,1.4.5,8.2,8.2,0,0,1,1.7,1.1,10.1,10.1,0,0,1,1.3,1.6,3.2,3.2,0,0,1,.6,1.8,1.6,1.6,0,0,1-.3.8l-.8,1.2a6.9,6.9,0,0,1-1.1,1.3,6.7,6.7,0,0,1-1.4,1.1l-2.1-.5a6.1,6.1,0,0,1-2-.9,3.3,3.3,0,0,1-1.4-1.2,2.5,2.5,0,0,1-.6-1.6A4.1,4.1,0,0,1,1005.3,241.3Zm21.5-26.3c-.8,2.1-1.6,4.2-2.3,6.2s-1.6,3.9-2.5,5.7a41.4,41.4,0,0,1-2.9,5.5,54.9,54.9,0,0,1-3.9,5.3l-1.2-.7-1.3-.7-1.3-.7-.9-.7c0-.3.1-.9.2-1.7l.7-2.8c.2-1.1.6-2.3.9-3.6s.8-2.6,1.3-3.9.9-2.7,1.3-4.1,1-2.6,1.5-3.7a30.2,30.2,0,0,1,1.5-3.1,9.6,9.6,0,0,1,1.3-2.1,1.8,1.8,0,0,1,.9-.6,2,2,0,0,1,1.1-.3l1.3.2,1.4.4a6.1,6.1,0,0,1,1.4.7,4,4,0,0,1,1.2,1c.1.1.1.2.1.4s.4.3.6.5a2.1,2.1,0,0,1,.4.6Z"/><path class="cls-20" d="M119.6,240.9a12.1,12.1,0,0,1-.7,4.3,14,14,0,0,1-2.3,3.5A8,8,0,0,1,112,251l-2.5.6-2.4.4a41.2,41.2,0,0,1-.6,4.2,10.4,10.4,0,0,0-.2,1.5,7.9,7.9,0,0,1-2.1,4.7,12.4,12.4,0,0,1-3.5,2.3,13.3,13.3,0,0,1-4.5.7,14.4,14.4,0,0,1-3.6-.7,11,11,0,0,1-2.9-1.7,8.3,8.3,0,0,1-2.4-3.3,13.2,13.2,0,0,1-1-3c-.3-1.2-.6-2.4-.8-3.7l-2.2-.2-1.7-.3-1.3-.2a7.2,7.2,0,0,1-4.6-2.2,10.4,10.4,0,0,1-2.9-8,8.4,8.4,0,0,1,.7-3.5,9.2,9.2,0,0,1,1.6-2.9,8,8,0,0,1,3.4-2.4,11,11,0,0,1,2.9-1.1l3.7-.7a25.4,25.4,0,0,1,.4-2.9A23.8,23.8,0,0,1,86,226a9.7,9.7,0,0,1,2.2-4.3,11.7,11.7,0,0,1,2.9-2.3,10.1,10.1,0,0,1,3.8-.9,8.7,8.7,0,0,1,4.3.7,10.2,10.2,0,0,1,3.5,2.2,9.1,9.1,0,0,1,2.4,4.6,18.4,18.4,0,0,0,.5,2.5,18.7,18.7,0,0,1,.4,2.5,53.1,53.1,0,0,1,6,1,10.1,10.1,0,0,1,4.4,2.2,8.7,8.7,0,0,1,2.3,2.9A8.5,8.5,0,0,1,119.6,240.9Z"/><path class="cls-20" d="M51,300.2a23.1,23.1,0,0,1,4.3.9,19.3,19.3,0,0,1,3.2,1.3,9.6,9.6,0,0,1,2.2,1.6,11.4,11.4,0,0,1,1.5,1.7,7.2,7.2,0,0,1,1.3,4.2,12.5,12.5,0,0,1-.4,3.5,16.9,16.9,0,0,1-1.3,2.7,11.4,11.4,0,0,1-1.9,1.9l-2.1,1.3a17,17,0,0,1-5.7,1.4,32.2,32.2,0,0,1-4.4,0,14,14,0,0,1-3.2-.6,10.8,10.8,0,0,1-2.4-1l-1.5-1.2a4.9,4.9,0,0,1-1.5-3.6,6.1,6.1,0,0,1,.4-2.4,3.4,3.4,0,0,1,1.1-1.7,4.6,4.6,0,0,1,1.6-1.1l1.8-.7a16.5,16.5,0,0,1,5-.1,18.2,18.2,0,0,1-3.3-1.1,14.3,14.3,0,0,1-2.4-1.6,8,8,0,0,1-1.5-1.7,16.2,16.2,0,0,1-1-1.8,9.7,9.7,0,0,1-.5-4.5,8.2,8.2,0,0,1,.8-2.9,7.4,7.4,0,0,1,1.3-2.1,7.5,7.5,0,0,1,1.6-1.5,5.6,5.6,0,0,1,1.7-.9,11.3,11.3,0,0,1,4.5-.9,23.7,23.7,0,0,1,6.5.5,10.2,10.2,0,0,1,3.6,1.5,3.4,3.4,0,0,1,1.5,2.2,5.2,5.2,0,0,1,.2,2.1,3.9,3.9,0,0,1-.6,1.9,8,8,0,0,1-1.3,1.3l-1.8.8-2,.5A23.1,23.1,0,0,1,51,300.2Z"/><path class="cls-20" d="M92.4,320a7.9,7.9,0,0,1-2.2.5H88.1a5,5,0,0,1-2.3-.9,7.4,7.4,0,0,1-2.1-1.7,9.6,9.6,0,0,1-1.3-2,5.1,5.1,0,0,1-.7-1.8,5.3,5.3,0,0,0-.3-1.1,8.9,8.9,0,0,1-.2,1.1,8.3,8.3,0,0,1-.7,1.8,9.6,9.6,0,0,1-1.3,2,7.4,7.4,0,0,1-2.1,1.7,5,5,0,0,1-2.3.9H72.7a7.9,7.9,0,0,1-2.2-.5,5.3,5.3,0,0,1-1.5-.8,3.8,3.8,0,0,1-1.1-1.1,9.1,9.1,0,0,1-.7-1.4,10.3,10.3,0,0,1-.4-1.4,21,21,0,0,1-.3-3.6,31.7,31.7,0,0,1,.7-5.7,27.2,27.2,0,0,1,1.5-4.8,29.9,29.9,0,0,1,1.8-4l2-3.1a13.4,13.4,0,0,1,3-3.2,11.7,11.7,0,0,1,2.8-1.6,8.2,8.2,0,0,1,2.2-.6h1.9a8.2,8.2,0,0,1,2.2.6,11.7,11.7,0,0,1,2.8,1.6,10.3,10.3,0,0,1,3,3.2c.7.9,1.3,2,2,3.1a29.9,29.9,0,0,1,1.8,4,27.2,27.2,0,0,1,1.5,4.8,44.4,44.4,0,0,1,.7,5.7,14.2,14.2,0,0,1-.3,3.6,4.3,4.3,0,0,1-.4,1.4,9.1,9.1,0,0,1-.7,1.4l-1.1,1.1A5.3,5.3,0,0,1,92.4,320ZM81.6,304.2a2.1,2.1,0,0,0-1.3.5,1.7,1.7,0,0,0-.4,1.3,1.6,1.6,0,0,0,.5,1.3,2.1,2.1,0,0,0,1.2.4,2.1,2.1,0,0,0,1.3-.5,1.6,1.6,0,0,0,.4-1.2,2.2,2.2,0,0,0-.4-1.3A1.7,1.7,0,0,0,81.6,304.2Z"/><path class="cls-20" d="M113.4,309.1a17,17,0,0,1,.5,4.2,12.1,12.1,0,0,1-.4,3,7.5,7.5,0,0,1-1,2,4.3,4.3,0,0,1-1.4,1.3,6.1,6.1,0,0,1-4.1.8,6.9,6.9,0,0,1-2.2-.3,5.1,5.1,0,0,1-1.8-.9,4.9,4.9,0,0,1-1.2-1.3l-1-1.5a15.6,15.6,0,0,1-1.2-4,29.5,29.5,0,0,1-.6-5.9c0-2,0-3.8.1-5.4s.3-3.8.5-5.5a7.7,7.7,0,0,1,1-2.8,11.4,11.4,0,0,1,1.9-1.9,8.8,8.8,0,0,1,2.3-1.4l2.5-.7a21.9,21.9,0,0,1,6.4-.5l3.8.4,2.7.8a4.8,4.8,0,0,1,1.9.9,4.9,4.9,0,0,1,1.3,1,3.7,3.7,0,0,1,1.2,2.7,4.6,4.6,0,0,1-.4,2.1,3.3,3.3,0,0,1-1.1,1.5,5.4,5.4,0,0,1-1.6,1l-1.9.7a21.6,21.6,0,0,1-5.3.4,9,9,0,0,1,3.3,1.1,3.8,3.8,0,0,1,1.6,1.4,2.8,2.8,0,0,1,.6,1.8,3.6,3.6,0,0,1-1,2.8,6.2,6.2,0,0,1-2.2,1.5A10.1,10.1,0,0,1,113.4,309.1Z"/><path class="cls-20" d="M140.3,289.1l4.3.4a22.1,22.1,0,0,1,3.2.7,6.3,6.3,0,0,1,2.2.9,3.9,3.9,0,0,1,1.4,1,2.9,2.9,0,0,1,1.2,2.6,5.3,5.3,0,0,1-.4,2.3,10.1,10.1,0,0,1-1.3,1.6,6.9,6.9,0,0,1-1.9,1l-2.1.7a27.7,27.7,0,0,1-5.9.3,13.1,13.1,0,0,1,3.8,1.2,5.2,5.2,0,0,1,1.7,1.5,2.6,2.6,0,0,1,.5,1.9,3.8,3.8,0,0,1-.6,2.2l-1.5,1.4a7.1,7.1,0,0,1-1.6.7l-1,.3,3.6.2,2.7.6,1.8.9a6.5,6.5,0,0,1,1.2,1.1,3.7,3.7,0,0,1,1.1,2.8,2.8,2.8,0,0,1-.6,1.8,5.7,5.7,0,0,1-1.3,1.4,11.1,11.1,0,0,1-1.9.9,8.3,8.3,0,0,1-2.1.6,31.7,31.7,0,0,1-5.7.7,27.5,27.5,0,0,1-4.3-.2l-3.3-.7a13.3,13.3,0,0,1-2.4-1l-1.7-1.2a6.2,6.2,0,0,1-1.9-3.3,40.7,40.7,0,0,1-.7-6.1c0-2.1,0-4.1.1-5.9s.4-4.1.7-6.1a6.2,6.2,0,0,1,.9-2.7,14.6,14.6,0,0,1,1.6-1.9l2.1-1.3a8.8,8.8,0,0,1,2.3-.7A17.9,17.9,0,0,1,140.3,289.1Z"/><path class="cls-20" d="M33.4,353a23.1,23.1,0,0,1,4.3.9,19.3,19.3,0,0,1,3.2,1.3,9.6,9.6,0,0,1,2.2,1.6,11.4,11.4,0,0,1,1.5,1.7,7.2,7.2,0,0,1,1.3,4.2,12.5,12.5,0,0,1-.4,3.5,16.9,16.9,0,0,1-1.3,2.7,11.4,11.4,0,0,1-1.9,1.9l-2.1,1.3a17,17,0,0,1-5.7,1.4,32.2,32.2,0,0,1-4.4,0,14,14,0,0,1-3.2-.6,10.8,10.8,0,0,1-2.4-1L23,370.7a4.9,4.9,0,0,1-1.5-3.6,6.1,6.1,0,0,1,.4-2.4A3.4,3.4,0,0,1,23,363a4.6,4.6,0,0,1,1.6-1.1l1.8-.7a16.5,16.5,0,0,1,5-.1,18.2,18.2,0,0,1-3.3-1.1,14.3,14.3,0,0,1-2.4-1.6,8,8,0,0,1-1.5-1.7,16.2,16.2,0,0,1-1-1.8,9.7,9.7,0,0,1-.5-4.5,8.2,8.2,0,0,1,.8-2.9,7.4,7.4,0,0,1,1.3-2.1,7.5,7.5,0,0,1,1.6-1.5,5.6,5.6,0,0,1,1.7-.9,11.3,11.3,0,0,1,4.5-.9,23.7,23.7,0,0,1,6.5.5,10.2,10.2,0,0,1,3.6,1.5,3.4,3.4,0,0,1,1.5,2.2,5.2,5.2,0,0,1,.2,2.1,3.9,3.9,0,0,1-.6,1.9,8,8,0,0,1-1.3,1.3l-1.8.8-2,.5A23.1,23.1,0,0,1,33.4,353Z"/><path class="cls-20" d="M77.9,352.8a13,13,0,0,1-.4,4.2,12.8,12.8,0,0,1-1.5,3.1,8,8,0,0,1-2.1,2,8.5,8.5,0,0,1-2.5,1.3,16.6,16.6,0,0,1-6.8.8,15.9,15.9,0,0,1,.3,2.9,6.8,6.8,0,0,1-.2,2.1,7.7,7.7,0,0,1-.7,1.6,3.2,3.2,0,0,1-1,1,5.9,5.9,0,0,1-3,1.3,7.1,7.1,0,0,1-4.3-.7,8.9,8.9,0,0,1-2.8-2.1,10.1,10.1,0,0,1-1.8-3.4,22.7,22.7,0,0,1-1.1-6.5,32.9,32.9,0,0,1,.2-5.6,28.2,28.2,0,0,1,1.1-5.2,8.3,8.3,0,0,1,1.4-3,13.4,13.4,0,0,1,2-2.1,13.7,13.7,0,0,1,2.1-1.5l2.3-.9a16.6,16.6,0,0,1,5.5-.6,17.8,17.8,0,0,1,4.3.6,17.5,17.5,0,0,1,3.3,1.3,11.1,11.1,0,0,1,2.3,1.9,10.6,10.6,0,0,1,1.7,2A14.7,14.7,0,0,1,77.9,352.8ZM64.5,352a2.1,2.1,0,0,0-1.3.5,1.7,1.7,0,0,0-.5,1.3,2.3,2.3,0,0,0,.6,1.3,2.1,2.1,0,0,0,1.2.3,1.6,1.6,0,0,0,1.2-.4,1.3,1.3,0,0,0,.5-1.2,2,2,0,0,0-.4-1.3A1.7,1.7,0,0,0,64.5,352Z"/><path class="cls-20" d="M107.2,372.8a7.9,7.9,0,0,1-2.2.5h-2.1a5,5,0,0,1-2.3-.9,7.4,7.4,0,0,1-2.1-1.7,16.7,16.7,0,0,1-1.3-2,8.3,8.3,0,0,1-.7-1.8,8.9,8.9,0,0,1-.2-1.1c-.1.2-.1.6-.3,1.1a5.1,5.1,0,0,1-.7,1.8,15.1,15.1,0,0,1-1.2,2,12,12,0,0,1-2.1,1.7,5.9,5.9,0,0,1-2.4.9H87.5a8.7,8.7,0,0,1-2.2-.5,5.3,5.3,0,0,1-1.5-.8,5.7,5.7,0,0,1-1.1-1.1c-.2-.5-.5-.9-.7-1.4a10.3,10.3,0,0,1-.4-1.4,14.3,14.3,0,0,1-.2-3.6,24.7,24.7,0,0,1,.7-5.7,20.9,20.9,0,0,1,1.4-4.8,29.8,29.8,0,0,1,1.9-4c.6-1.1,1.3-2.2,1.9-3.1a13.4,13.4,0,0,1,3-3.2,13.9,13.9,0,0,1,2.8-1.6,8.2,8.2,0,0,1,2.2-.6h2a7.6,7.6,0,0,1,2.1.6,14.4,14.4,0,0,1,2.9,1.6,11.5,11.5,0,0,1,2.9,3.2c.7.9,1.3,2,2,3.1a29.8,29.8,0,0,1,1.9,4,40,40,0,0,1,1.4,4.8,31.7,31.7,0,0,1,.7,5.7,14.3,14.3,0,0,1-.2,3.6c-.1.4-.3.9-.4,1.4a10,10,0,0,1-.8,1.4,3.8,3.8,0,0,1-1.1,1.1A5.3,5.3,0,0,1,107.2,372.8ZM96.4,357a2.1,2.1,0,0,0-1.3.5,1.7,1.7,0,0,0-.4,1.3,1.6,1.6,0,0,0,.5,1.3,2.1,2.1,0,0,0,1.2.4,1.9,1.9,0,0,0,1.3-.5,1.7,1.7,0,0,0,.5-1.2,2.4,2.4,0,0,0-.5-1.3A1.7,1.7,0,0,0,96.4,357Z"/><path class="cls-20" d="M134.1,354.5a7.1,7.1,0,0,0-2.5-.1,4.4,4.4,0,0,0-1.7.8,2.3,2.3,0,0,0-.8,2,2.7,2.7,0,0,0,.4,1.8,5,5,0,0,0,1.6,1.1,6.9,6.9,0,0,0,3.1.3,10.5,10.5,0,0,1,3.6.1l1.3.5a3.8,3.8,0,0,1,1.3.9,4.3,4.3,0,0,1,.9,1.3,5.9,5.9,0,0,1,.6,2,7.1,7.1,0,0,1-.2,2.5,8.9,8.9,0,0,1-1,2.3,7.7,7.7,0,0,1-2.3,2,13.7,13.7,0,0,1-3.9,1.3,23.6,23.6,0,0,1-4.8.2,27.2,27.2,0,0,1-6.8-1.1,12.9,12.9,0,0,1-4.8-2.8l-1.8-2a9.3,9.3,0,0,1-1.5-2.6,17.9,17.9,0,0,1-1-3.5,14.8,14.8,0,0,1-.3-4.3,16.9,16.9,0,0,1,1.2-6.4c.4-.9.8-1.7,1.3-2.6a12.1,12.1,0,0,1,2.1-2.4,13.4,13.4,0,0,1,3-2.1,17.6,17.6,0,0,1,3.9-1.5,26.8,26.8,0,0,1,9.2-.2,14.3,14.3,0,0,1,4.7,1.8,8.9,8.9,0,0,1,1.9,2,6.1,6.1,0,0,1,.5,1.2,3.2,3.2,0,0,1,.3,1.4,4.5,4.5,0,0,1-.1,1.6,4.9,4.9,0,0,1-.5,1.9,4.6,4.6,0,0,1-1.4,1.7,5.1,5.1,0,0,1-2.1.9A9.6,9.6,0,0,1,134.1,354.5Z"/><path class="cls-20" d="M157.9,341.9l4.3.4a22.1,22.1,0,0,1,3.2.7,6.3,6.3,0,0,1,2.2.9,3.9,3.9,0,0,1,1.4,1,2.9,2.9,0,0,1,1.2,2.6,5.3,5.3,0,0,1-.4,2.3,10.1,10.1,0,0,1-1.3,1.6,6.9,6.9,0,0,1-1.9,1l-2.1.7a27.7,27.7,0,0,1-5.9.3,13.1,13.1,0,0,1,3.8,1.2,5.2,5.2,0,0,1,1.7,1.5,2.6,2.6,0,0,1,.5,1.9,3.8,3.8,0,0,1-.6,2.2l-1.5,1.4a7.1,7.1,0,0,1-1.6.7l-1,.3,3.6.2,2.7.6,1.8.9a6.5,6.5,0,0,1,1.2,1.1,3.7,3.7,0,0,1,1.1,2.8,2.8,2.8,0,0,1-.6,1.8,5.7,5.7,0,0,1-1.3,1.4,11.1,11.1,0,0,1-1.9.9,8.3,8.3,0,0,1-2.1.6,31.7,31.7,0,0,1-5.7.7,28.2,28.2,0,0,1-4.3-.2l-3.3-.7a13.3,13.3,0,0,1-2.4-1l-1.7-1.2a6.2,6.2,0,0,1-1.9-3.3,40.7,40.7,0,0,1-.7-6.1c0-2.1,0-4.1.1-5.9s.4-4.1.7-6.1a6.2,6.2,0,0,1,.9-2.7,14.6,14.6,0,0,1,1.6-1.9l2.1-1.3a8.8,8.8,0,0,1,2.3-.7A17.9,17.9,0,0,1,157.9,341.9Z"/><path class="cls-20" d="M366.1,278.4a4.7,4.7,0,0,1,1.4,1.2,7.5,7.5,0,0,1,1.5,2,5.4,5.4,0,0,1,.9,2.4,3.1,3.1,0,0,1-.4,2.3,21.6,21.6,0,0,1-1.9,2.6c-1,1.3-2.2,2.9-3.5,4.8s-2.8,4.3-4.4,6.9a84.1,84.1,0,0,0-4.4,9,48.2,48.2,0,0,0-2.6,7c-.8,2.5-1.5,5.2-2.2,8a11.2,11.2,0,0,0-.3,2.4,4.8,4.8,0,0,0,0,1.7v.3a1.4,1.4,0,0,0,.9,1.2,2.2,2.2,0,0,0,2.1-.6,14.9,14.9,0,0,0,2.1-2.2l1.9-2.9c.5-1.1,1-1.9,1.3-2.5a1.3,1.3,0,0,1,.5-.6l.6-.4a1,1,0,0,1,.9-.1c.4,0,.6.1.7.3s.1.4.1.6a5.1,5.1,0,0,1-.2.9c-.4,1-1.2,2.3-2.1,4.1a55.4,55.4,0,0,1-3.3,5.1l-.9,1-.9.9-.9.8-.4.4-1.2.6a4.7,4.7,0,0,1-1.6.4,1.7,1.7,0,0,1-1.2-.1,3.9,3.9,0,0,1-2.6-1.7,16.9,16.9,0,0,1-1.3-3.1c-.2-1.3-.4-2.7-.5-4.2a10.8,10.8,0,0,1,0-1.8,12.1,12.1,0,0,1,.1-1.9,22,22,0,0,1,.6-3.7c.2-1.2.5-2.2.7-3.1a15.8,15.8,0,0,1,.9-3.1,113.3,113.3,0,0,1,5.5-13.8c1.9-4.2,3.7-7.8,5.3-10.7s3.8-6.5,5.6-9.2a4.4,4.4,0,0,1,1.1-.9,2.1,2.1,0,0,1,1-.6A1.2,1.2,0,0,1,366.1,278.4Z"/><path class="cls-20" d="M359,320.5a27.6,27.6,0,0,1,3.8-7.1,18.3,18.3,0,0,1,4.1-4.2,9.5,9.5,0,0,1,4.1-1.7,6.9,6.9,0,0,1,3.6.4,4.8,4.8,0,0,1,2.2,1.7,7.3,7.3,0,0,1,.8,2.5c0,.3.1.6.1,1v1.2c-.1.8-.3,1.8-.6,3.1a14.5,14.5,0,0,1-1.9,4,16,16,0,0,1-4,3.7,17,17,0,0,1-6.8,2.6,9.5,9.5,0,0,0,.2,2.9,2.9,2.9,0,0,0,2,2h.9a7.4,7.4,0,0,0,3-.2,6.9,6.9,0,0,0,2.5-1,11,11,0,0,0,2.1-1.4c.6-.6,1.2-1.1,1.6-1.6l.3-.4.3-.3.6-.8c.7-.9,1.2-1.8,1.8-2.7l1.2-2.3a1,1,0,0,1,.4-.7,1.8,1.8,0,0,1,1.6-.5.9.9,0,0,1,.6.4,1.4,1.4,0,0,1,.2.6,3.1,3.1,0,0,1-.2.8l-1,2-1.4,2.6a24,24,0,0,1-1.7,2.7l-.4.5-.5.8a33.4,33.4,0,0,1-4.3,3.9,10.7,10.7,0,0,1-6.1,2.1h-2.3a12.4,12.4,0,0,1-5-1.4,6.9,6.9,0,0,1-2.6-2.8,7.3,7.3,0,0,1-.9-3.2,13.7,13.7,0,0,1,.1-3.5h0A34.4,34.4,0,0,1,359,320.5Zm7.3,1.4-.5,1.2a4.9,4.9,0,0,0-.4,1.1,11.9,11.9,0,0,0,4-1.5,16.3,16.3,0,0,0,2.7-2.5,12.3,12.3,0,0,0,1.7-2.8,9,9,0,0,0,.7-2.2q.2-1.5-.3-1.8l-.7-.3-1.1.3a5.1,5.1,0,0,0-1.6,1.2,23.2,23.2,0,0,0-2.1,2.6A49.4,49.4,0,0,0,366.3,321.9Z"/><path class="cls-20" d="M383.6,330.4a.3.3,0,0,1,.1.2l-.2.6-.3.5c0,.2-.1.4-.1.6a1.4,1.4,0,0,0,.2.6,1,1,0,0,0,.9.4.9.9,0,0,0,1.1-.2,2.3,2.3,0,0,0,.6-1.2,9.6,9.6,0,0,0,0-1.7c-.1-.7-.1-1.3-.2-2a36,36,0,0,0-.4-3.6l-.3-3.4v-1l-1.4,2.5-1.1,1.8-.5.6-.6.2c-.2.1-.5-.1-.7-.4a2.3,2.3,0,0,1-.5-.7,1.5,1.5,0,0,1,.1-.7,1.3,1.3,0,0,1,.3-.8l1.3-2.8c.5-1,.9-2.1,1.4-3.1a26.1,26.1,0,0,1,1.2-2.8c.3-.9.6-1.5.7-2s.3-2.4.4-3.4a3.9,3.9,0,0,1,.7-1.8l1.6-.9a7.9,7.9,0,0,1,2.2-.6l2.4-.3h2.2a1.3,1.3,0,0,1,.7.5,1.5,1.5,0,0,1,.2,1,5.4,5.4,0,0,1-.4,1.8,9.6,9.6,0,0,0-.8,2.4,34,34,0,0,0-.7,3.4,25.8,25.8,0,0,0-.4,4c0,1.4.1,2.7.2,4a41.2,41.2,0,0,1,.7,4.6,14.5,14.5,0,0,1-.1,5.1,8.4,8.4,0,0,1-2.1,4.2c-1.2,1.2-3.1,1.8-5.7,1.9a8,8,0,0,1-3.9-.6,4.4,4.4,0,0,1-2.3-1.8,4.6,4.6,0,0,1-.4-3.8,3,3,0,0,1,.2-1,3.5,3.5,0,0,1,.5-.8,1.1,1.1,0,0,1,.7-.6h1.1l.8.3A2,2,0,0,1,383.6,330.4Z"/><path class="cls-20" d="M400,330.4c.1,0,.1.1.1.2a1.5,1.5,0,0,1-.2.6.8.8,0,0,0-.2.5,1.3,1.3,0,0,0-.1.6,1.4,1.4,0,0,0,.2.6.8.8,0,0,0,.8.4,1,1,0,0,0,1.2-.2,2.2,2.2,0,0,0,.5-1.2,9.1,9.1,0,0,0,.1-1.7c-.1-.7-.1-1.3-.2-2s-.3-2.5-.4-3.6-.3-2.2-.4-3.4v-1c-.4.9-.9,1.7-1.3,2.5s-.8,1.3-1.1,1.8l-.5.6-.6.2c-.3.1-.5-.1-.7-.4s-.5-.5-.5-.7v-.7a3,3,0,0,1,.4-.8,29.3,29.3,0,0,1,1.2-2.8c.5-1,1-2.1,1.4-3.1s.9-2,1.2-2.8a11.6,11.6,0,0,0,.8-2,29,29,0,0,1,.4-3.4,3.9,3.9,0,0,1,.7-1.8l1.6-.9a7.9,7.9,0,0,1,2.2-.6l2.4-.3h2.2a1.8,1.8,0,0,1,.7.5,2.5,2.5,0,0,1,.2,1,6.2,6.2,0,0,1-.5,1.8l-.8,2.4c-.2,1.1-.5,2.2-.7,3.4a32.1,32.1,0,0,0-.1,8c.2,1.3.5,2.8.7,4.6a17.4,17.4,0,0,1-.1,5.1,7.8,7.8,0,0,1-2.2,4.2c-1.1,1.2-3,1.8-5.6,1.9a7.6,7.6,0,0,1-3.9-.6,4.4,4.4,0,0,1-2.3-1.8c-.7-.9-.8-2.1-.5-3.8l.3-1,.4-.8a1.3,1.3,0,0,1,.7-.6h1.1l.9.3A1.8,1.8,0,0,1,400,330.4Z"/><path class="cls-20" d="M442.3,310.5a4.1,4.1,0,0,1-.5,1.1,11.9,11.9,0,0,1-.8,1.6,4.9,4.9,0,0,1-.4,1.1,7.6,7.6,0,0,0-.4,1.1,20,20,0,0,1,2.3-3,17.6,17.6,0,0,1,2.6-2.8,8.7,8.7,0,0,1,2.6-1.8,3.2,3.2,0,0,1,2.3-.3,7.6,7.6,0,0,1,2.6,1.6,8.2,8.2,0,0,1,1.8,1.9,5.5,5.5,0,0,1,.8,2.9,26.1,26.1,0,0,1-.3,3.4,32.6,32.6,0,0,1-1.1,4.8,41.2,41.2,0,0,1-2.1,5,18.3,18.3,0,0,1-3,4.6,11.6,11.6,0,0,1-4,3.3,8.4,8.4,0,0,1-5,1.1,4.9,4.9,0,0,1-1.9-.5,4.8,4.8,0,0,1-1.5-1.4,6.3,6.3,0,0,1-1.2-2.6,90,90,0,0,0-1.7,9.3c-.5,2.9-.8,5.5-1,8s-.2,4.6-.2,6.5,0,3.5.1,4.8V363a3.6,3.6,0,0,1-1.1,2.1,7.4,7.4,0,0,1-2.1,1.3,11.3,11.3,0,0,1-2.4.8l-1.9.2a1.2,1.2,0,0,1-1-.5,1.9,1.9,0,0,1-.5-1,3.2,3.2,0,0,1-.3-1.4c.1-2.9.3-6,.7-9.4s.8-6.4,1.5-10.3a130.2,130.2,0,0,1,3-12.9c.1-.6.3-1.1.4-1.8a11.7,11.7,0,0,0,.5-2,5.6,5.6,0,0,0,.4-1.2,5,5,0,0,0,.4-1.3,9,9,0,0,0,.6-2.2l.6-2a16.7,16.7,0,0,0,.5-1.8c.2-.5.3-1,.5-1.4s.5-1.6.7-2.4l.7-2a4.6,4.6,0,0,0,.4-1.3l.9-2.6c.3-.8.6-1.6.9-2.2s.6-1.4.8-2v-.2l.2-.3a2.2,2.2,0,0,1,.5-.8,1,1,0,0,1,.9-.2l2,.8a13.3,13.3,0,0,1,2.4,1.9h.1v.3a2,2,0,0,1,.2,1,4.5,4.5,0,0,1-.6,2h0A.1.1,0,0,0,442.3,310.5Zm6.1,1.4c-1.6,1.4-3.1,2.7-4.6,4.2a51.1,51.1,0,0,0-3.8,4.1,24.2,24.2,0,0,0-3.1,4.5c0,.2-.1.4-.1.7a6.4,6.4,0,0,0-.2.7,6.1,6.1,0,0,1,.3,1.4,15.2,15.2,0,0,0,.6,2,5.9,5.9,0,0,0,1.1,1.9,2.1,2.1,0,0,0,1.6,1,2.6,2.6,0,0,0,1.7-1.1,14.5,14.5,0,0,0,2.1-2.9c.7-1.3,1.3-2.7,2-4.2s1.2-3.2,1.7-4.7a41.5,41.5,0,0,0,.9-4.3A8.3,8.3,0,0,0,448.4,311.9Z"/><path class="cls-20" d="M477.2,321.6c-.7,1.3-1.5,3-2.5,4.8a32.4,32.4,0,0,1-3.5,5.3,14.7,14.7,0,0,1-4.5,3.8,6.3,6.3,0,0,1-5.2.7,4.8,4.8,0,0,1-2.5-1.5,7.6,7.6,0,0,1-1.6-2.6,16,16,0,0,1-.7-3.3,20.4,20.4,0,0,1,0-3.5,27.6,27.6,0,0,1,.7-4.3,22.2,22.2,0,0,1,1.1-3.6L460,314a24.6,24.6,0,0,1,3.2-4.6,10.9,10.9,0,0,1,3.5-2.4,4.3,4.3,0,0,1,4.2.5,5.3,5.3,0,0,1,2-1.3,3.6,3.6,0,0,1,2.3-.2,3.7,3.7,0,0,1,2.8,1.6,6,6,0,0,1,1.2,3.2,24.1,24.1,0,0,1,0,3.8,22.4,22.4,0,0,1-.7,3.4,14.8,14.8,0,0,0,4.2-2l2.9-2.2.7-.7q.4-.2.6,0c.2,0,.3.3.3.7a2.1,2.1,0,0,1,0,1.1,3.7,3.7,0,0,1-.8,1.8,16.5,16.5,0,0,1-3.9,3A16,16,0,0,1,477.2,321.6Zm-14.1,3.6a16.2,16.2,0,0,0-.6,3.7,8.7,8.7,0,0,0,.4,2.1,1.5,1.5,0,0,0,1.1,1,2.5,2.5,0,0,0,2.4-.5,11.2,11.2,0,0,0,2.5-2.4,24.8,24.8,0,0,0,2.3-3.6c.7-1.4,1.4-2.8,2-4.3a7.1,7.1,0,0,1-2.4-1.3,7.2,7.2,0,0,1-2-2.9,8.9,8.9,0,0,1-.4-3.6,19.4,19.4,0,0,0-2.1,3,32,32,0,0,0-1.6,3.9C464.1,321.8,463.6,323.5,463.1,325.2Zm8.5-11.4a5,5,0,0,0,.2,1.8,5.4,5.4,0,0,0,.7,1.3l.9.8.9.4c.8-2.6,1.1-4.5.8-5.8a1.6,1.6,0,0,0-.7-.9,1.5,1.5,0,0,0-1.1-.2,1.7,1.7,0,0,0-1,.7A3.3,3.3,0,0,0,471.6,313.8Z"/><path class="cls-20" d="M501.5,278.4a6.4,6.4,0,0,1,1.4,1.2,7.5,7.5,0,0,1,1.5,2,7,7,0,0,1,.9,2.4,3.7,3.7,0,0,1-.4,2.3,16.4,16.4,0,0,1-2,2.6l-3.5,4.8-4.3,6.9a68.7,68.7,0,0,0-4.4,9,63.7,63.7,0,0,0-2.7,7c-.7,2.5-1.4,5.2-2.1,8-.2.9-.3,1.7-.4,2.4a9.1,9.1,0,0,0,.1,1.7v.3a1.5,1.5,0,0,0,.8,1.2,2.4,2.4,0,0,0,2.2-.6,14.9,14.9,0,0,0,2.1-2.2,22.9,22.9,0,0,0,1.8-2.9c.6-1.1,1-1.9,1.4-2.5s.2-.4.4-.6l.7-.4c.2-.2.5-.2.9-.1a.6.6,0,0,1,.6.3,1.4,1.4,0,0,1,.2.6,5.1,5.1,0,0,1-.2.9l-2.2,4.1a55.4,55.4,0,0,1-3.3,5.1l-.8,1-.9.9-1,.8-.3.4-1.3.6a4.2,4.2,0,0,1-1.6.4,1.7,1.7,0,0,1-1.2-.1,3.7,3.7,0,0,1-2.5-1.7,12,12,0,0,1-1.3-3.1,18.6,18.6,0,0,1-.5-4.2,10.9,10.9,0,0,1-.1-1.8c.1-.6.1-1.3.2-1.9s.3-2.5.5-3.7.5-2.2.8-3.1a28.1,28.1,0,0,1,.8-3.1c1.8-5.1,3.6-9.7,5.5-13.8s3.8-7.8,5.4-10.7,3.8-6.5,5.6-9.2l1-.9a2.7,2.7,0,0,1,1-.6A1.4,1.4,0,0,1,501.5,278.4Z"/><path class="cls-20" d="M515.6,278.4a6.4,6.4,0,0,1,1.3,1.2,10.8,10.8,0,0,1,1.6,2,6.8,6.8,0,0,1,.8,2.4,3.1,3.1,0,0,1-.4,2.3,21.6,21.6,0,0,1-1.9,2.6c-1,1.3-2.2,2.9-3.5,4.8s-2.8,4.3-4.4,6.9a84.1,84.1,0,0,0-4.4,9,63.7,63.7,0,0,0-2.6,7c-.8,2.5-1.5,5.2-2.1,8a7.5,7.5,0,0,0-.4,2.4,4.8,4.8,0,0,0,0,1.7v.3a1.4,1.4,0,0,0,.9,1.2,2.2,2.2,0,0,0,2.1-.6,14.9,14.9,0,0,0,2.1-2.2l1.9-2.9c.5-1.1,1-1.9,1.3-2.5a1.3,1.3,0,0,1,.5-.6l.6-.4a1,1,0,0,1,.9-.1c.4,0,.6.1.7.3a1.3,1.3,0,0,1,.1.6,5.1,5.1,0,0,1-.2.9c-.4,1-1.2,2.3-2.1,4.1a55.4,55.4,0,0,1-3.3,5.1l-.9,1-.9.9-.9.8-.4.4-1.2.6a4.2,4.2,0,0,1-1.6.4,1.7,1.7,0,0,1-1.2-.1,3.9,3.9,0,0,1-2.6-1.7,16.9,16.9,0,0,1-1.3-3.1c-.2-1.3-.4-2.7-.5-4.2v-1.8c0-.6.1-1.3.1-1.9a22,22,0,0,1,.6-3.7c.2-1.2.5-2.2.7-3.1a15.8,15.8,0,0,1,.9-3.1,113.3,113.3,0,0,1,5.5-13.8c1.9-4.2,3.7-7.8,5.3-10.7s3.8-6.5,5.6-9.2a4.4,4.4,0,0,1,1.1-.9,2.1,2.1,0,0,1,1-.6A1.5,1.5,0,0,1,515.6,278.4Z"/><path class="cls-20" d="M529,335.6a5.2,5.2,0,0,1-1.9.6h-1.8l-1.7-.4a3.9,3.9,0,0,1-2.2-2.3,10,10,0,0,1-.7-3.6,27.6,27.6,0,0,1-4.4,4.6,6.4,6.4,0,0,1-5,1.4H511a4,4,0,0,1-3.2-2,7.3,7.3,0,0,1-1.2-3.4,10.1,10.1,0,0,1,.1-3c.1-1,.3-1.9.4-2.6s.6-2,.8-3,.5-1.8.7-2.6a22.5,22.5,0,0,0,.8-2.4c.3-.7.5-1.3.7-1.9a1.4,1.4,0,0,0,.2-.6,2.5,2.5,0,0,1,.2-.7l.9-2.6a17.1,17.1,0,0,0,.9-2.2l.8-2c0-.1.1-.1.1-.2l.2-.4.5-.7a1.2,1.2,0,0,1,1-.2l1.9.8a10.1,10.1,0,0,1,2.3,1.9l.3.4c0,.1.1.2.1.4a1.3,1.3,0,0,1,.1.6,4.5,4.5,0,0,1-.6,2h0a.1.1,0,0,0-.1.1,6.1,6.1,0,0,0-.5,1.1,11.9,11.9,0,0,1-.8,1.6L517,316a8.1,8.1,0,0,1-.6,1.3l-1.2,3.4c-.3,1.2-.7,2.5-1.1,3.8a14.2,14.2,0,0,0-.6,2.1,6.2,6.2,0,0,0-.1,2.3c0,.9.3,1.4.7,1.6a.7.7,0,0,0,.6.2c.8.1,1.6-.4,2.5-1.4a26.8,26.8,0,0,0,2.6-3.7c.7-1.4,1.4-2.7,2-4l1.2-2.7c.5-1.4.9-2.6,1.4-3.8l1.3-3.2c.5-1,.9-2,1.4-2.9a2.6,2.6,0,0,1,.5-.9l.6-.6a.8.8,0,0,1,.8-.1,15.2,15.2,0,0,1,2,1.1,14.6,14.6,0,0,1,2.5,2,1.4,1.4,0,0,1,.3.9,2,2,0,0,1,0,1.1,4.7,4.7,0,0,1-.7,1.7l-1,1.9q-.7,1.3-1.5,3a37.3,37.3,0,0,0-1.6,3.5,36.6,36.6,0,0,0-1.2,3.5,9.6,9.6,0,0,0-.3,2.7,1.3,1.3,0,0,0,.9,1.4,2.2,2.2,0,0,0,2.1-.6,14.9,14.9,0,0,0,2.1-2.2l1.9-2.9c.5-1.1,1-1.9,1.3-2.5a1.5,1.5,0,0,1,.5-.7,1.5,1.5,0,0,1,1.5-.4c.4,0,.6.1.7.3a1.3,1.3,0,0,1,.1.6,5.1,5.1,0,0,1-.2.9l-1.4,2.9c-.7,1.2-1.4,2.5-2.3,3.8A42.2,42.2,0,0,1,532,333,13.9,13.9,0,0,1,529,335.6Z"/><path class="cls-20" d="M546.6,309.6a63.7,63.7,0,0,0-2.7,7c-.8,2.5-1.5,5.2-2.2,8a15.7,15.7,0,0,0-.3,4.1h0c.1,0,.1.1.1.2a1.5,1.5,0,0,0,.8,1.2,2.2,2.2,0,0,0,2.1-.6,8.8,8.8,0,0,0,2.1-2.2l1.9-2.9,1.3-2.5.5-.7a1.6,1.6,0,0,1,1.5-.4.8.8,0,0,1,.9.9,5.1,5.1,0,0,1-.2.9l-2.2,4.1a55.4,55.4,0,0,1-3.3,5.1l-.9,1a9.4,9.4,0,0,1-1.8,1.7c0,.1-.1.1-.1.2a.2.2,0,0,0-.2.2l-1.3.6a4.2,4.2,0,0,1-1.6.4,1.7,1.7,0,0,1-1.2-.1,4.2,4.2,0,0,1-2.5-1.8A12,12,0,0,1,536,331a18.6,18.6,0,0,1-.5-4.2,10.9,10.9,0,0,1-.1-1.8c.1-.6.1-1.2.2-1.8s.3-2.5.5-3.7a19.8,19.8,0,0,1,.8-3.1,28.1,28.1,0,0,1,.8-3.1c1.1-3.2,2.3-6.1,3.4-8.9s2.3-5.3,3.5-7.7H521.2c-.6,0-1.1-.2-1.2-.5l-.3-.5a3.9,3.9,0,0,1,1.9-4.3,6.2,6.2,0,0,1,2.4-.8,14.2,14.2,0,0,1,2.9-.2l10.2.4,10.2.5,2.7-5c.8-1.5,1.6-2.7,2.2-3.7l2-3,1-.9a2.7,2.7,0,0,1,1-.6,1.4,1.4,0,0,1,1.2.3,6.4,6.4,0,0,1,1.4,1.2,7.5,7.5,0,0,1,1.5,2,9.9,9.9,0,0,1,.9,2.4,3.7,3.7,0,0,1-.4,2.3l-1.5,2.1-2.6,3.3,7.6.4,10.3.3,11.5.3,11.6.4,10.3.2,7.8.3h.8l1.1.3.9.4a.5.5,0,0,1,.4.6c0,.2-.2.4-.7.6l-1.8.4h-3.7l-7.8.2-10.3.2H553.4a59.5,59.5,0,0,0-3.4,5.8A67.4,67.4,0,0,0,546.6,309.6Z"/><path class="cls-20" d="M561.1,310.5a3.6,3.6,0,0,1,.4.9,4.5,4.5,0,0,1-.1,1.1,4.4,4.4,0,0,1-.6,1.7c-.2.4-.6,1-1,1.9l-1.6,3c-.5,1.1-1,2.3-1.6,3.5a36.6,36.6,0,0,0-1.2,3.5,6.9,6.9,0,0,0-.3,2.7,1.3,1.3,0,0,0,.9,1.4,2.2,2.2,0,0,0,2.1-.5,24,24,0,0,0,2.1-2.3,14.1,14.1,0,0,0,1.8-2.9l1.4-2.4a1,1,0,0,1,.4-.7,1.8,1.8,0,0,1,1.6-.5,1,1,0,0,1,.9,1,3.1,3.1,0,0,1-.2.8l-1.5,3-2.3,3.7a24.2,24.2,0,0,1-2.7,3.6,9.1,9.1,0,0,1-3,2.6,4.4,4.4,0,0,1-1.9.7H553l-1.7-.4a4.1,4.1,0,0,1-2.3-2.2,8.6,8.6,0,0,1-.7-3.6,17.5,17.5,0,0,1,.4-4.4,46.4,46.4,0,0,1,1.2-4.7,102,102,0,0,1,4.7-12.1,2.8,2.8,0,0,1,.6-.9,1.7,1.7,0,0,1,.6-.6.6.6,0,0,1,.7-.1,7.1,7.1,0,0,1,2.1,1.1A11.6,11.6,0,0,1,561.1,310.5Zm-2.5-5.7a2.6,2.6,0,0,1-.6-2.4,8.7,8.7,0,0,1,.8-2.3l.8-1.2.7-.9.5-.8.9-1a2,2,0,0,1,.8-.4,1.3,1.3,0,0,1,1.1.3l1.2,1.1a10.9,10.9,0,0,1,1.3,1.7,5.4,5.4,0,0,1,.8,2.1,3.4,3.4,0,0,1-.3,2c-.2.4-.6.8-1,1.4a21.5,21.5,0,0,1-1.8,2.3,1.2,1.2,0,0,1-1.1.5,4.2,4.2,0,0,1-1.5-.4l-1.4-.9A6.5,6.5,0,0,1,558.6,304.8Z"/><path class="cls-20" d="M583.4,321.6a45.6,45.6,0,0,1-2.5,4.8,27,27,0,0,1-3.5,5.3,15.6,15.6,0,0,1-4.4,3.8,6.6,6.6,0,0,1-5.3.7,5.3,5.3,0,0,1-2.5-1.5,9.3,9.3,0,0,1-1.5-2.6,11.4,11.4,0,0,1-.7-3.3,10.3,10.3,0,0,1,0-3.5,19.3,19.3,0,0,1,.7-4.3,22.2,22.2,0,0,1,1.1-3.6,20.7,20.7,0,0,1,1.5-3.4,17.9,17.9,0,0,1,3.2-4.6,10.5,10.5,0,0,1,3.4-2.4,4.5,4.5,0,0,1,4.3.5,5,5,0,0,1,1.9-1.3,3.6,3.6,0,0,1,2.3-.2,3.9,3.9,0,0,1,2.9,1.6,6.8,6.8,0,0,1,1.1,3.2,12.1,12.1,0,0,1,0,3.8c-.2,1.3-.4,2.5-.6,3.4a16.2,16.2,0,0,0,4.2-2,30.8,30.8,0,0,0,2.8-2.2l.8-.7a.6.6,0,0,1,.6,0c.1,0,.2.3.3.7v1.1a4.9,4.9,0,0,1-.8,1.8,16.5,16.5,0,0,1-3.9,3A17.4,17.4,0,0,1,583.4,321.6Zm-14,3.6a9.6,9.6,0,0,0-.6,3.7,5.6,5.6,0,0,0,.4,2.1,1.4,1.4,0,0,0,1,1,2.7,2.7,0,0,0,2.5-.5,13.9,13.9,0,0,0,2.5-2.4,24.8,24.8,0,0,0,2.3-3.6c.7-1.4,1.3-2.8,1.9-4.3a5.9,5.9,0,0,1-2.3-1.3A6.6,6.6,0,0,1,575,317a8.8,8.8,0,0,1-.3-3.6,11.4,11.4,0,0,0-2.1,3,32.9,32.9,0,0,0-1.7,3.9C570.4,321.8,569.8,323.5,569.4,325.2Zm8.5-11.4a5.1,5.1,0,0,0,.1,1.8,5.4,5.4,0,0,0,.7,1.3,3.9,3.9,0,0,0,1,.8l.9.4c.8-2.6,1-4.5.7-5.8a1.3,1.3,0,0,0-.7-.9,1.2,1.2,0,0,0-1-.2,1.9,1.9,0,0,0-1.1.7A4.3,4.3,0,0,0,577.9,313.8Z"/><path class="cls-20" d="M592.9,322.3q1.6-2.9,3.6-5.7a47,47,0,0,1,4-5.2,19,19,0,0,1,3.8-3.4,3.5,3.5,0,0,1,3.5-.4l2,1a8.9,8.9,0,0,1,2,1.9,1.6,1.6,0,0,1,.5.9,4.5,4.5,0,0,1-.1,1.1,7,7,0,0,1-.6,1.7,20.1,20.1,0,0,0-1.1,1.9q-.6,1.3-1.5,3c-.5,1.1-1.1,2.3-1.6,3.5a36.6,36.6,0,0,0-1.2,3.5,15.7,15.7,0,0,0-.3,2.7,1.3,1.3,0,0,0,.9,1.4,2.3,2.3,0,0,0,2.1-.6,14.9,14.9,0,0,0,2.1-2.2l1.9-2.9,1.3-2.5a1.3,1.3,0,0,1,.4-.7,1.7,1.7,0,0,1,1.6-.4c.5,0,.8.3.8.9a3.4,3.4,0,0,1-.1.9l-1.6,2.9c-.6,1.2-1.4,2.5-2.2,3.8a42.2,42.2,0,0,1-2.7,3.6,10.4,10.4,0,0,1-3,2.6,4.7,4.7,0,0,1-1.9.6h-1.7l-1.8-.4a4.4,4.4,0,0,1-2.6-3.4,18.1,18.1,0,0,1,0-5.7,31.4,31.4,0,0,1,1.5-6.6c.8-2.2,1.5-4.2,2.2-6H603a31.5,31.5,0,0,0-4.9,5.7,77.4,77.4,0,0,0-4.3,7.1,58.7,58.7,0,0,0-4.3,9.7c-.1.4-.2.6-.4.7h-.5a7.1,7.1,0,0,1-2.8-.8,3.9,3.9,0,0,1-1.5-1.3,1.4,1.4,0,0,1-.5-1v-.6a25.8,25.8,0,0,1,.5-3.6c.2-1.3.5-2.6.8-3.9a22.2,22.2,0,0,1,.9-3.7q.4-1.8.9-3.3c.3-.8.5-1.6.8-2.4a8.2,8.2,0,0,0,.6-1.9l.5-1.3.9-2.6c.3-.8.6-1.6.9-2.2s.6-1.4.8-2,0-.1.1-.2a1,1,0,0,1,.1-.4c.2-.2.3-.5.6-.7a1,1,0,0,1,.9-.2l2,.8a10.1,10.1,0,0,1,2.3,1.9c0,.1.1.2.2.4s.1.2.2.4a1.3,1.3,0,0,1,.1.6,4.5,4.5,0,0,1-.6,2h-.1l-.6,1.1a12.6,12.6,0,0,1-.7,1.6l-.7,1.5-.5,1.3-.9,2.4Z"/></g></g></svg>